<?xml version="1.0" standalone="no"?>
<!DOCTYPE svg PUBLIC "-//W3C//DTD SVG 1.1//EN" "http://www.w3.org/Graphics/SVG/1.1/DTD/svg11.dtd" >
<!--
2013-9-30: Created.
-->
<svg>
<metadata>
Created by iconfont
</metadata>
<defs>

<font id="iconfont" horiz-adv-x="1024" >
  <font-face
    font-family="iconfont"
    font-weight="500"
    font-stretch="normal"
    units-per-em="1024"
    ascent="896"
    descent="-128"
  />
    <missing-glyph />
    
    <glyph glyph-name="info_more" unicode="&#58987;" d="M482.697627 646.668375L562.766221 726.7369679999999 905.917628 383.586584 562.766221 40.43517699999995 482.697627 120.50377000000003 745.780441 383.586584ZM118.083395 646.668375L198.151989 726.7369679999999 541.302373 383.586584 198.151989 40.43517699999995 118.083395 120.50377000000003 381.166209 383.586584Z"  horiz-adv-x="1024" />

    
    <glyph glyph-name="icon_fenye" unicode="&#58925;" d="M419.84 368.64a44.032 44.032 0 0 0 12.9024 30.72L703.488 670.72a44.1344 44.1344 0 0 0 62.3616-62.3616L526.2336 368.64l239.616-239.616A44.1344 44.1344 0 0 0 703.488 66.56L432.64 337.5104A44.032 44.032 0 0 0 419.84 368.64zM276.48 691.2m40.96 0l0 0q40.96 0 40.96-40.96l0-563.2q0-40.96-40.96-40.96l0 0q-40.96 0-40.96 40.96l0 563.2q0 40.96 40.96 40.96Z"  horiz-adv-x="1024" />

    
    <glyph glyph-name="icon_jianjigongju" unicode="&#58926;" d="M978.5344 584.8064L438.272 44.6464a68.5056 68.5056 0 0 0-96.8704 0L51.2 335.2576a68.5056 68.5056 0 0 0 96.8704 96.8704l241.7664-242.176 491.52 491.52a68.5056 68.5056 0 0 0 96.8704-96.8704z"  horiz-adv-x="1024" />

    
    <glyph glyph-name="icon_guanbi" unicode="&#58927;" d="M153.942535 814.444719m36.203867-36.203867l731.462933-731.462933q36.203867-36.203867 0-72.407734l0 0q-36.203867-36.203867-72.407734 0l-731.462933 731.462933q-36.203867 36.203867 0 72.407734l0 0q36.203867 36.203867 72.407734 0ZM957.819201 742.051466m-36.203867-36.203867l-731.462933-731.462933q-36.203867-36.203867-72.407735 0l0 0q-36.203867 36.203867 0 72.407735l731.462933 731.462933q36.203867 36.203867 72.407735 0l0 0q36.203867-36.203867 0-72.407735Z"  horiz-adv-x="1024" />

    
    <glyph glyph-name="icon_top-menu" unicode="&#58928;" d="M98.304 726.1184a63.8976 63.8976 0 0 1-61.44-61.44 62.3616 62.3616 0 0 1 61.44-60.1088 61.44 61.44 0 0 1 60.1088 60.1088 62.3616 62.3616 0 0 1-60.1088 61.44z m899.9936-61.44a46.1824 46.1824 0 0 0-43.52-48.4352H294.0928a46.1824 46.1824 0 0 0-43.52 48.4352 46.1824 46.1824 0 0 0 43.52 48.4352h660.6848a46.1824 46.1824 0 0 0 43.52-48.0256zM98.304 428.032a63.8976 63.8976 0 0 1-61.44-61.44 62.3616 62.3616 0 0 1 61.44-60.1088 61.44 61.44 0 0 1 60.1088 60.1088 62.3616 62.3616 0 0 1-60.1088 61.44z m899.9936-61.44a46.1824 46.1824 0 0 0-43.52-48.4352H294.0928a48.64 48.64 0 0 0 0 96.768h660.6848a46.1824 46.1824 0 0 0 43.52-47.8208zM98.304 130.048a63.8976 63.8976 0 0 1-61.44-61.44 62.3616 62.3616 0 0 1 61.44-60.1088 61.44 61.44 0 0 1 60.1088 60.1088 62.3616 62.3616 0 0 1-60.1088 61.44z m899.9936-61.44a46.1824 46.1824 0 0 0-43.52-48.4352H294.0928a48.64 48.64 0 0 0 0 96.768h660.6848a46.1824 46.1824 0 0 0 43.52-47.9232z"  horiz-adv-x="1024" />

    
    <glyph glyph-name="icon_fenye1" unicode="&#58929;" d="M683.7248 337.5104L412.8768 66.56a44.1344 44.1344 0 1 0-62.3616 62.3616l239.616 239.616-239.616 239.7184a44.1344 44.1344 0 0 0 62.3616 62.464l270.848-270.848a44.1344 44.1344 0 0 0 0-62.3616z"  horiz-adv-x="1024" />

    
    <glyph glyph-name="icon_back" unicode="&#58930;" d="M627.098 607.9490000000001h-174.08V752.64L70.5536 558.0799999999999l382.464-194.56V506.88h188.518q224.154 0 224.154-191.386 0-197.939-231.629-197.939h-440.32V15.360000000000013h444.826q315.699 0 315.699 289.792 0 302.797-327.168 302.797Z"  horiz-adv-x="1024" />

    
    <glyph glyph-name="icon_jianjigongju1" unicode="&#58931;" d="M517.12 788.48a409.6 409.6 0 1 1 409.6-409.6 409.6 409.6 0 0 1-409.6 409.6z m0-711.68A302.08 302.08 0 1 0 819.2 378.88 302.08 302.08 0 0 0 517.12 76.8z"  horiz-adv-x="1024" />

    
    <glyph glyph-name="icon_shoucang" unicode="&#58932;" d="M1017.2416 508.2112a81.2032 81.2032 0 0 1-65.4336 52.6336L698.368 598.016l-110.1824 225.28A83.1488 83.1488 0 0 1 440.32 823.3984l-110.1824-225.28-253.7472-37.2736a81.1008 81.1008 0 0 1-65.3312-52.736A76.6976 76.6976 0 0 1 30.72 427.6224L216.3712 244.736l-43.2128-253.6448a77.1072 77.1072 0 0 1 33.792-77.6192 83.6608 83.6608 0 0 1 47.0016-14.1312 85.6064 85.6064 0 0 1 39.5264 9.6256L514.048 26.2144l221.5936-117.5552a86.9376 86.9376 0 0 1 86.1184 4.9152 77.2096 77.2096 0 0 1 33.3824 77.4144L812.032 244.6336l186.2656 183.0912a77.2096 77.2096 0 0 1 18.944 80.4864zM952.32 474.112l-198.2464-194.56a32.4608 32.4608 0 0 1-9.1136-28.672l45.9776-270.5408a12.288 12.288 0 0 0-5.7344-12.288 21.6064 21.6064 0 0 0-19.456-1.2288L529.408 91.9552a32.8704 32.8704 0 0 1-30.72 0l-235.52-125.3376a20.48 20.48 0 0 0-19.456 0.8192 12.8 12.8 0 0 0-6.144 12.5952L283.4432 250.88a32.5632 32.5632 0 0 1-9.3184 28.7744L75.8784 474.112a11.776 11.776 0 0 0-3.2768 12.288 16.1792 16.1792 0 0 0 13.312 10.24l270.6432 39.6288a32.6656 32.6656 0 0 1 24.576 17.92l117.76 240.64a18.1248 18.1248 0 0 0 30.72 0l117.76-240.8448a32.6656 32.6656 0 0 1 24.576-17.92L942.08 496.64a16.4864 16.4864 0 0 0 13.4144-9.728A12.0832 12.0832 0 0 0 952.32 474.112z"  horiz-adv-x="1024" />

    
    <glyph glyph-name="icon_paixu" unicode="&#58933;" d="M519.68-61.6448L747.52 211.5584H291.7376z m0 865.4848L291.7376 530.6368H747.52z"  horiz-adv-x="1024" />

    
    <glyph glyph-name="icon_jianjigongju2" unicode="&#58934;" d="M870.4 733.0816a144.896 144.896 0 0 1-199.9872 0L196.5056 258.2528a33.9968 33.9968 0 0 1-9.3184-16.384l-50.3808-199.9872a35.7376 35.7376 0 0 1 25.6-42.9056 36.5568 36.5568 0 0 1 17.8176 0l199.2704 49.9712a31.744 31.744 0 0 1 16.2816 9.4208L870.4 532.8896a142.4384 142.4384 0 0 1 0 200.192zM353.1776 115.2l-133.12-33.3824 33.3824 133.12L645.12 608.0512l100.0448-100.1472z m466.6368 467.7632L795.0336 558.08l-100.0448 100.0448 24.7808 25.088a72.4992 72.4992 0 0 0 100.0448 0 70.3488 70.3488 0 0 0 0.6144-99.4304z"  horiz-adv-x="1024" />

    
    <glyph glyph-name="icon_shuaxin" unicode="&#58935;" d="M980.7872 717.312a35.5328 35.5328 0 0 1-35.5328-35.5328v-49.8688a497.8688 497.8688 0 1 1-24.8832-542.0032l0.7168 0.9216c1.1264 1.536 2.4576 2.9696 3.584 4.5056a35.0208 35.0208 0 0 1 6.7584 19.7632 35.5328 35.5328 0 0 1-67.4816 15.872 426.5984 426.5984 0 1 0 32.4608 444.2112h-57.5488a35.5328 35.5328 0 0 1 0-71.0656H980.992a35.5328 35.5328 0 0 1 35.5328 35.5328V681.8816a35.5328 35.5328 0 0 1-35.6352 35.5328z"  horiz-adv-x="1024" />

    
    <glyph glyph-name="icon_jianjigongju3" unicode="&#58936;" d="M880.64 321.3312V694.1696a52.736 52.736 0 0 1-52.736 52.736H455.0656a52.736 52.736 0 0 1 0-105.472h245.76L165.888 106.7008a52.736 52.736 0 0 1 74.5472-74.5472L775.168 566.8864v-245.76a52.736 52.736 0 1 1 105.472 0z"  horiz-adv-x="1024" />

    
    <glyph glyph-name="icon_xialashouqi" unicode="&#58937;" d="M519.68 520.4992L747.52 247.296H291.7376z"  horiz-adv-x="1024" />

    
    <glyph glyph-name="icon_fenye2" unicode="&#58938;" d="M622.2848 337.5104L351.4368 66.56a44.1344 44.1344 0 1 0-62.3616 62.3616l239.616 239.616-239.616 239.7184a44.1344 44.1344 0 0 0 62.3616 62.464l270.848-270.848a44.1344 44.1344 0 0 0 0-62.3616zM696.32 691.2m40.96 0l0 0q40.96 0 40.96-40.96l0-563.2q0-40.96-40.96-40.96l0 0q-40.96 0-40.96 40.96l0 563.2q0 40.96 40.96 40.96Z"  horiz-adv-x="1024" />

    
    <glyph glyph-name="icon_bianji" unicode="&#58939;" d="M880.64 358.0928a38.2976 38.2976 0 0 0 76.6976 0v-366.4896a108.544 108.544 0 0 0-108.544-108.544H145.8176a108.8512 108.8512 0 0 0-108.8512 108.544V694.3744A108.8512 108.8512 0 0 0 145.8176 803.2256h345.088a38.2976 38.2976 0 0 0 0-76.6976h-345.088a31.8464 31.8464 0 0 1-32.256-30.72v-704.2048a31.8464 31.8464 0 0 1 31.8464-31.8464h702.8736A31.8464 31.8464 0 0 1 880.64-8.3968zM910.6432 743.424l-51.8144 51.712-485.1712-485.376-16.4864-68.5056 68.5056 16.4864zM454.144 185.7536l-139.9808-34.304a38.2976 38.2976 0 0 0-47.2064 47.2064l33.6896 139.8784a38.2976 38.2976 0 0 0 10.24 18.0224L818.688 863.3344a57.5488 57.5488 0 0 0 80.4864 0L979.1488 783.36a57.1392 57.1392 0 0 0 0-80.0768L472.064 196.3008a40.96 40.96 0 0 0-17.92-10.5472z"  horiz-adv-x="1024" />

    
    <glyph glyph-name="icon_fenye3" unicode="&#58940;" d="M337.92 368.64a44.032 44.032 0 0 0 12.9024 30.72L621.568 670.72a44.1344 44.1344 0 0 0 62.3616-62.3616L444.3136 368.64l239.616-239.616A44.1344 44.1344 0 0 0 621.568 66.56L350.72 337.5104A44.032 44.032 0 0 0 337.92 368.64z"  horiz-adv-x="1024" />

    
    <glyph glyph-name="icon_shanchu" unicode="&#58941;" d="M612.864 150.2208a33.5872 33.5872 0 0 0-33.5872 33.4848V553.1648a33.5872 33.5872 0 1 0 67.1744 2.7648v-372.1216a33.5872 33.5872 0 0 0-33.4848-33.5872m-201.5232 0a33.5872 33.5872 0 0 0-33.5872 33.4848V553.1648a33.5872 33.5872 0 1 0 67.1744 2.7648v-372.1216a33.5872 33.5872 0 0 0-33.4848-33.5872m537.1904 537.1904h-167.936v33.5872a100.4544 100.4544 0 0 1-99.9424 100.7616H344.2688a100.864 100.864 0 0 1-100.7616-100.7616v-33.5872H75.5712a33.5872 33.5872 0 1 1 0-67.1744h873.1648a33.5872 33.5872 0 0 1 0 67.1744m-638.0544 33.5872a33.5872 33.5872 0 0 0 33.5872 33.5872h336.5888a32.768 32.768 0 0 0 32.768-32.768v-34.4064H310.6816v33.5872M747.52-51.3024H277.1968a100.7616 100.7616 0 0 0-100.7616 100.7616V553.5744a33.5872 33.5872 0 1 0 67.1744 2.7648V49.3568A33.6896 33.6896 0 0 1 277.2992 15.36H747.52a33.5872 33.5872 0 0 1 33.5872 33.5872V552.2432a33.5872 33.5872 0 1 0 67.1744 2.7648v-505.6512A100.864 100.864 0 0 0 747.52-51.4048z"  horiz-adv-x="1024" />

    
    <glyph glyph-name="icon_jianjigongju4" unicode="&#58942;" d="M128 752.64m56.32 0l655.36 0q56.32 0 56.32-56.32l0-10.24q0-56.32-56.32-56.32l-655.36 0q-56.32 0-56.32 56.32l0 10.24q0 56.32 56.32 56.32ZM573.44 752.64m0-61.44l0-634.88q0-61.44-61.44-61.44l0 0q-61.44 0-61.44 61.44l0 634.88q0 61.44 61.44 61.44l0 0q61.44 0 61.44-61.44Z"  horiz-adv-x="1024" />

    
    <glyph glyph-name="icon_sousuo" unicode="&#58943;" d="M451.2768 793.6a346.5216 346.5216 0 1 0-135.3728-27.648A346.5216 346.5216 0 0 0 451.2768 793.6m0 81.92A430.08 430.08 0 1 1 880.64 445.44 430.08 430.08 0 0 1 450.56 875.52z m260.8128-691.4048a40.96 40.96 0 0 1 0-57.856l225.28-225.28a40.96 40.96 0 0 1 57.856 0 40.96 40.96 0 0 1 0 57.856l-225.28 225.28a40.96 40.96 0 0 1-57.856 0z"  horiz-adv-x="1024" />

    
    <glyph glyph-name="icon_xiala" unicode="&#58944;" d="M514.56 247.296L742.4 520.4992H286.72z"  horiz-adv-x="1024" />

    
    <glyph glyph-name="icon_xinzeng" unicode="&#58945;" d="M563.2 793.6m0-51.2l0-716.8q0-51.2-51.2-51.2l0 0q-51.2 0-51.2 51.2l0 716.8q0 51.2 51.2 51.2l0 0q51.2 0 51.2-51.2ZM921.6 332.8m-51.2 0l-716.8 0q-51.2 0-51.2 51.2l0 0q0 51.2 51.2 51.2l716.8 0q51.2 0 51.2-51.2l0 0q0-51.2-51.2-51.2Z"  horiz-adv-x="1024" />

    
    <glyph glyph-name="icon_xiaoxi" unicode="&#58946;" d="M513.7408 498.7904A59.904 59.904 0 1 1 573.44 438.784a59.904 59.904 0 0 1-59.6992 60.0064z m-239.8208 0a59.904 59.904 0 1 1 59.904-59.904 59.904 59.904 0 0 1-59.904 59.904zM513.7408 858.4192C248.832 858.4192 34.0992 670.72 34.0992 438.784c0-132.4032 70.2464-250.368 179.8144-327.68v-211.7632l210.1248 127.488a549.5808 549.5808 0 0 1 89.6-7.5776C778.24 19.2512 993.28 207.0528 993.28 438.784S778.24 858.4192 513.7408 858.4192z m0-779.264a484.5568 484.5568 0 0 0-101.2736 10.9568L271.2576 5.12l1.8432 139.0592C164.9664 209.408 94.1056 316.928 94.1056 438.784c0 198.656 187.904 359.7312 419.84 359.7312s419.84-161.0752 419.84-359.7312S745.472 79.1552 513.7408 79.1552z m239.8208 419.84a59.904 59.904 0 1 1 59.904-59.904 59.904 59.904 0 0 1-60.0064 59.6992z"  horiz-adv-x="1024" />

    
    <glyph glyph-name="icon_zhankai-shouqi" unicode="&#58947;" d="M552.96 545.4848l271.2576-270.848a44.1344 44.1344 0 1 0-62.3616-62.3616L522.24 451.8912l-239.616-239.616a44.1344 44.1344 0 1 0-62.3616 62.3616L491.52 545.4848a44.1344 44.1344 0 0 0 62.3616 0z"  horiz-adv-x="1024" />

    
    <glyph glyph-name="icon_zhankai" unicode="&#58948;" d="M522.24 199.68a44.032 44.032 0 0 0-30.72 12.9024L220.2624 483.1232a44.1344 44.1344 0 0 0 62.3616 62.3616L522.24 305.8688l239.616 239.616a44.1344 44.1344 0 1 0 62.3616-62.3616L552.96 212.2752A44.032 44.032 0 0 0 522.24 199.68z"  horiz-adv-x="1024" />

    
    <glyph glyph-name="icon_zhuanhuan-zuoyou" unicode="&#58949;" d="M67.584 263.2704a44.4416 44.4416 0 0 1 44.4416-44.4416H784.384L574.5664 70.4512a44.4416 44.4416 0 0 1 51.2-72.704l323.584 228.2496a44.3392 44.3392 0 0 1 18.944 37.1712 44.4416 44.4416 0 0 1-44.4416 44.4416H112.0256a44.4416 44.4416 0 0 1-44.4416-44.3392zM968.0896 505.4464a44.4416 44.4416 0 0 1-44.4416 44.4416H251.2896L460.8 698.2656a44.4416 44.4416 0 0 1-51.2 72.704L86.528 542.72a44.3392 44.3392 0 0 1-18.944-37.1712 44.4416 44.4416 0 0 1 44.4416-44.4416H923.648a44.4416 44.4416 0 0 1 44.4416 44.3392z"  horiz-adv-x="1024" />

    
    <glyph glyph-name="icon_zuixiaohua" unicode="&#58950;" d="M71.68 56.32m51.2 0l778.24 0q51.2 0 51.2-51.2l0 0q0-51.2-51.2-51.2l-778.24 0q-51.2 0-51.2 51.2l0 0q0 51.2 51.2 51.2Z"  horiz-adv-x="1024" />

    
    <glyph glyph-name="icon_shouye_quanqiuredian_liebiaozhanshi" unicode="&#58951;" d="M954.4704 58.368H69.3248a46.2848 46.2848 0 0 1 0-92.16h885.1456a46.2848 46.2848 0 0 1 0 92.16z m0 380.416H69.3248a46.2848 46.2848 0 0 1 0-92.16h885.1456a46.2848 46.2848 0 0 1 0 92.16zM69.3248 726.6304h885.1456a46.2848 46.2848 0 0 1 0 92.16H69.3248a46.2848 46.2848 0 0 1 0-92.16z"  horiz-adv-x="1024" />

    
    <glyph glyph-name="icon_wanghou" unicode="&#58952;" d="M70.2464 305.4592Q70.2464 15.36 385.9456 15.36h444.7232v101.7856h-440.32q-231.6288 0-231.6288 197.9392Q158.9248 506.88 382.976 506.88h188.8256v-144.384l382.464 194.56L571.8016 752.64v-144.6912h-174.08q-327.4752 0-327.4752-302.4896z"  horiz-adv-x="1024" />

    
    <glyph glyph-name="menu-people" unicode="&#58953;" d="M951.296 607.744H803.84c-20.48 0-36.864-16.384-36.864-36.864s16.384-36.864 36.864-36.864h147.456c20.48 0 36.864 16.384 36.864 36.864 0 19.968-16.384 36.864-36.864 36.864m0-147.456H803.84c-20.48 0-36.864-16.384-36.864-36.864s16.384-36.864 36.864-36.864h147.456c20.48 0 36.864 16.384 36.864 36.864s-16.384 36.864-36.864 36.864M804.352 680.96h147.456c20.48 0 36.864 16.384 36.864 36.864s-16.384 36.864-36.864 36.864h-147.456c-20.48 0-36.864-16.384-36.864-36.864s16.384-36.864 36.864-36.864m0-666.112H143.36c-0.512 0-1.024 0.512-1.536 1.024v136.704c0 6.656 6.656 17.408 13.824 19.968 2.048 0.512 180.736 78.848 317.44 78.848 136.704 0 315.392-78.336 318.464-79.36 6.144-2.56 12.8-12.8 12.8-19.456v-137.728zM335.36 468.48V589.312c0 71.168 57.344 128.512 128.512 129.024 71.168 0 128.512-57.856 128.512-129.024v-120.32c0-71.168-57.344-128.512-128.512-129.024-71.168 0-128.512 57.344-128.512 128.512z m484.352-228.864c-6.144 2.56-111.616 49.152-228.352 72.192 47.104 38.4 74.752 96.256 74.752 157.184V589.312c0 111.616-90.624 202.752-202.24 202.752S261.632 701.44 261.632 589.824v-120.32c0-65.024 30.72-122.88 78.848-159.744-111.104-24.064-208.384-66.56-213.504-68.608-33.792-13.312-58.88-51.2-58.88-88.064v-151.552l2.048-5.632c10.752-32.256 40.448-53.76 73.216-53.76h658.944c38.4 0 70.144 28.672 74.752 65.536l0.512 145.408c0 35.328-25.088 72.704-57.856 86.528z"  horiz-adv-x="1024" />

    
    <glyph glyph-name="menu-yanlun" unicode="&#58954;" d="M849.92 804.977778H172.373333c-45.511111 0-83.057778-37.546667-83.057777-83.057778v-677.546667c0-45.511111 37.546667-83.057778 83.057777-83.057777h677.546667c45.511111 0 83.057778 37.546667 83.057778 83.057777V721.92c0 45.511111-37.546667 83.057778-83.057778 83.057778zM489.244444 353.848889l-164.977777-194.56c-14.791111-17.066667-38.684444-17.066667-54.044445 0s-14.791111 46.648889 0 63.715555l104.106667 122.88H259.413333c-25.031111 0-44.942222 19.911111-44.942222 44.942223v2.275555c0 11.946667 3.413333 24.462222 10.808889 32.995556l156.444444 184.888889c14.791111 17.066667 38.684444 17.066667 54.044445 0 14.791111-17.066667 14.791111-46.648889 0-63.715556L341.902222 434.631111H455.111111c22.186667 0 40.96-16.497778 44.373333-38.115555 2.844444-14.222222 0-31.288889-10.24-42.666667z m273.635556-170.666667h-173.511111c-25.031111 0-44.942222 19.911111-44.942222 44.942222s19.911111 44.942222 44.942222 44.942223h173.511111c25.031111 0 44.942222-19.911111 44.942222-44.942223 0.568889-25.031111-20.48-44.942222-44.942222-44.942222z m45.511111 199.68c0-25.031111-19.911111-44.942222-44.942222-44.942222h-173.511111c-25.031111 0-44.942222 19.911111-44.942222 44.942222s19.911111 44.942222 44.942222 44.942222h173.511111c23.893333 0 44.942222-19.911111 44.942222-44.942222z m-45.511111 118.897778h-173.511111c-25.031111 0-44.942222 19.911111-44.942222 44.942222s19.911111 44.942222 44.942222 44.942222h173.511111c25.031111 0 44.942222-19.911111 44.942222-44.942222 0.568889-24.462222-20.48-44.942222-44.942222-44.942222z"  horiz-adv-x="1024" />

    
    <glyph glyph-name="icon_zuidahua" unicode="&#58955;" d="M943.104 865.28a52.0192 52.0192 0 0 0 52.0192-52.0192v-401.1008a52.0192 52.0192 0 0 0-103.936 0V813.2608l52.0192-52.0192H535.2448a52.0192 52.0192 0 1 0 0 104.0384zM80.6912-97.28a52.0192 52.0192 0 0 0-52.0192 51.2V355.328a52.0192 52.0192 0 1 0 104.448 0V-46.08l-52.4288 52.3264h407.8592a52.0192 52.0192 0 0 0 0-103.936z"  horiz-adv-x="1024" />

    
    <glyph glyph-name="icon_jianjigongju5" unicode="&#58956;" d="M133.12 752.64v-757.76h757.76V752.64z m645.12-645.12H245.76V640h532.48z"  horiz-adv-x="1024" />

    
    <glyph glyph-name="menu-case" unicode="&#58957;" d="M552.6 354.8l-0.9 88.1c-2.1 20.4-22.6 35-45.8 32.6-23.2-2.4-40.3-20.9-38.2-41.3l0.9-89.4c-1.8-12.3 1.2-25.3 10.5-35L576.2 205c16.1-16.9 42.8-17.6 59.7-1.5 16.9 16 17.6 42.8 1.6 59.7l-84.9 91.6zM807.6 700.8h-84.5v28c0 21.5-18.9 38.8-42.2 38.8-23.3 0-42.2-17.3-42.2-38.8v-28H385.3v28c0 21.5-18.9 38.8-42.2 38.8-23.3 0-42.2-17.3-42.2-38.8v-28h-84.5c-46.7 0-84.5-37.8-84.5-84.5v-531.5c0-46.6 37.8-84.5 84.5-84.5h591.2c46.7 0 84.5 37.9 84.5 84.5V616.3c0 46.7-37.8 84.5-84.5 84.5z m0-616H216.4V616.3h84.5v-42.7c0-21.4 18.9-38.8 42.2-38.8 23.3 0 42.2 17.4 42.2 38.8v42.7h253.4v-42.7c0-21.4 18.9-38.8 42.2-38.8 23.3 0 42.2 17.4 42.2 38.8v42.7h84.5v-531.5z"  horiz-adv-x="1024" />

    
    <glyph glyph-name="view_all" unicode="&#58958;" d="M970.752 626.9952a217.8048 217.8048 0 0 1-435.5072 0v-217.7024h217.7024A217.8048 217.8048 0 0 1 970.752 626.9952z m-365.8752 0a148.1728 148.1728 0 1 0 148.0704-148.0704H604.8768zM51.2 143.0528a217.8048 217.8048 0 1 1 435.5072 0V360.7552H269.0048A217.8048 217.8048 0 0 1 51.2 143.0528z m365.8752 0a148.1728 148.1728 0 1 0-148.0704 148.0704h148.0704z m-148.1728 266.24h217.8048V626.9952a217.8048 217.8048 0 1 1-217.7024-217.7024z m0 365.8752a148.2752 148.2752 0 0 0 148.1728-148.1728v-148.0704H269.0048a148.1728 148.1728 0 0 0 0 296.3456z m484.0448-414.4128H535.2448v-217.7024a217.8048 217.8048 0 1 1 217.7024 217.7024z m0-365.8752a148.2752 148.2752 0 0 0-148.0704 148.1728V291.1232h148.0704a148.1728 148.1728 0 1 0 0-296.3456z"  horiz-adv-x="1024" />

    
    <glyph glyph-name="yewufenxi_fanganmingcheng" unicode="&#58959;" d="M509.44 651.8784H908.288a74.752 74.752 0 0 1 0 149.6064H509.44a74.752 74.752 0 0 1 0-149.6064zM908.288 452.5056H509.44a74.752 74.752 0 0 1 0-149.6064H908.288a74.752 74.752 0 0 1 0 149.6064z m0-348.9792H509.44a74.752 74.752 0 0 1 0-149.6064H908.288a74.752 74.752 0 0 1 0 149.6064zM53.1456 225.6896L330.8544 386.048 53.1456 546.4064z"  horiz-adv-x="1024" />

    
    <glyph glyph-name="view_map" unicode="&#58960;" d="M995.7376 32.9728l-120.832 226.304a86.6304 86.6304 0 0 1-70.5536 41.6768h-49.0496c-16.5888-22.1184-33.6896-44.7488-51.2-67.4816h67.4816a53.1456 53.1456 0 0 0 43.52-27.0336l71.68-141.1072c12.9024-25.1904 5.5296-46.592-17.2032-46.592H160.4608c-22.7328 0-30.0032 21.504-17.2032 46.592l71.68 141.1072a53.1456 53.1456 0 0 0 43.52 27.0336h73.6256c-17.2032 22.7328-33.6896 45.3632-51.2 67.4816h-54.8864a86.6304 86.6304 0 0 1-70.5536-41.6768L34.7136 32.9728C10.24-13.1072 21.8112-54.784 63.488-54.784h904.0896c41.0624 0 52.736 41.0624 28.16 87.7568z m-486.912 65.6384a15.9744 15.9744 0 0 1 12.288-6.144 15.0528 15.0528 0 0 1 12.288 6.144l221.9008 298.5984a276.48 276.48 0 0 1 47.8208 156.3648 282.112 282.112 0 0 1-564.224 0A276.48 276.48 0 0 1 295.936 384z m12.288 559.3088a104.2432 104.2432 0 1 0-104.96-104.2432 104.6528 104.6528 0 0 0 104.8576 104.2432z"  horiz-adv-x="1024" />

    
    <glyph glyph-name="menu-place" unicode="&#58961;" d="M818.348 484.193c0 169.695-137.565 307.26-307.26 307.26s-307.26-137.565-307.26-307.26c0-55.098 14.575-106.763 39.971-151.477h-0.095l0.89-1.384a307.736 307.736 0 0 1 16.603-25.812l196.268-305.141s18.594-28.573 52.94-28.573c0 0 33.694-1.174 53.134 28.182l196.565 304.299a307.694 307.694 0 0 1 17.554 27.175l0.81 1.255h-0.089c25.394 44.713 39.969 96.377 39.969 151.476zM701.643 355.874L510.696 60.396 319.164 355.874h1.112c-24.754 36.674-39.21 80.873-39.21 128.45 0 126.965 102.925 229.89 229.891 229.89 126.964 0 229.89-102.925 229.89-229.89 0-47.577-14.456-91.775-39.21-128.45h0.006zM510.228 611.74c-70.547 0-127.737-57.19-127.737-127.737 0-70.548 57.19-127.738 127.737-127.738s127.737 57.19 127.737 127.738c0 70.547-57.19 127.737-127.737 127.737z m0-179.19c-28.417 0-51.453 23.036-51.453 51.453s23.036 51.453 51.453 51.453 51.453-23.036 51.453-51.453-23.037-51.453-51.453-51.453z"  horiz-adv-x="1024" />

    
    <glyph glyph-name="gerenzhongxin_gerenguanzhu" unicode="&#58962;" d="M1007.2064 243.4048L517.8368 408.064a23.6544 23.6544 0 0 1-29.7984-29.7984l164.6592-489.3696a22.4256 22.4256 0 0 1 41.7792-3.584l108.6464 210.1248 210.0224 107.4176a23.04 23.04 0 0 1-5.9392 40.5504zM521.1136 108.4416h-11.0592A280.8832 280.8832 0 1 0 791.04 389.12c0-6.144 0-12.288-0.6144-18.432h68.9152v18.432a349.5936 349.5936 0 1 1-349.2864-349.5936h11.0592zM824.7296 373.76m-34.9184 0a34.9184 34.9184 0 1 1 69.8368 0 34.9184 34.9184 0 1 1-69.8368 0ZM519.2704 74.4448m-34.9184 0a34.9184 34.9184 0 1 1 69.8368 0 34.9184 34.9184 0 1 1-69.8368 0ZM981.0944 352.8704m-36.7616 0a36.7616 36.7616 0 1 1 73.5232 0 36.7616 36.7616 0 1 1-73.5232 0ZM527.2576-87.552m-36.7616 0a36.7616 36.7616 0 1 1 73.5232 0 36.7616 36.7616 0 1 1-73.5232 0ZM510.3616 891.6992a507.8016 507.8016 0 0 1 0-1015.7056h16.0768v72.704h-16.0768A435.2 435.2 0 1 0 945.5616 384c0-9.0112 0-17.92-0.9216-26.7264h72.9088q0.7168 13.312 0.7168 26.7264A507.8016 507.8016 0 0 1 510.3616 891.6992z"  horiz-adv-x="1024" />

    
    <glyph glyph-name="view_tupu" unicode="&#58963;" d="M911.36 444.2112a307.2 307.2 0 0 1-324.096 77.2096 208.9984 208.9984 0 0 1-60.7232 112.64 259.1744 259.1744 0 0 0 127.488 103.7312 117.5552 117.5552 0 1 1 1.3312 52.6336 308.3264 308.3264 0 0 1-168.0384-126.1568 209.2032 209.2032 0 1 1-177.9712-376.9344 257.7408 257.7408 0 0 0-67.4816-130.4576A117.248 117.248 0 1 1 264.704 87.04a118.0672 118.0672 0 0 1-1.9456 20.992 307.2 307.2 0 0 1 94.5152 167.3216 210.7392 210.7392 0 0 1 24.4736-1.536 208.2816 208.2816 0 0 1 97.1776 23.9616A258.6624 258.6624 0 0 0 634.88 110.4896a117.4528 117.4528 0 1 1 53.9648-32.8704 307.2 307.2 0 0 1-163.84 253.44 208.6912 208.6912 0 0 1 65.536 138.9568 258.048 258.048 0 0 0 253.0304-31.232 116.9408 116.9408 0 1 1 67.7888 5.4272zM768.8192 821.9648a61.44 61.44 0 1 0-61.44-61.44 61.44 61.44 0 0 0 61.44 61.44zM147.6608 25.6a61.44 61.44 0 1 0 61.44 61.44 61.44 61.44 0 0 0-61.44-61.44z m517.4272-28.0576a61.44 61.44 0 1 0-61.44 61.44 61.44 61.44 0 0 0 61.44-61.44zM381.6448 373.76A109.9776 109.9776 0 1 0 491.52 483.5328 109.9776 109.9776 0 0 0 381.6448 373.76z m504.832-105.6768a61.44 61.44 0 1 0 61.44 61.44 61.44 61.44 0 0 0-61.3376-61.6448z"  horiz-adv-x="1024" />

    
    <glyph glyph-name="menu-guandian" unicode="&#58964;" d="M512.183 852.576c-258.41 0-468.625-210.216-468.625-468.626 0-76.394 18.886-152.32 54.946-220.174 9.65-17.385 14.744-37.15 14.744-57.171a118.753 118.753 0 0 0-30.91-79.73 36.18 36.18 0 0 1-5.875-8.745c-6.284-13.22-9.465-24.73-9.465-34.2 0.12-34.63 25.895-63.805 60.25-68.19 1.525-0.21 3.05-0.315 4.605-0.315h380.33c258.386 0 468.626 210.245 468.626 468.656 0 258.33-210.24 468.495-468.626 468.495z m-143.36-378.115c0 19.92 16.298 36.217 36.218 36.217h183.566c19.92 0 36.216-16.298 36.216-36.217s-16.297-36.216-36.216-36.216H405.04c-19.92 0-36.218 16.297-36.218 36.216z m327.74-158.814c0-19.92-16.297-36.217-36.216-36.217H405.04c-19.92 0-36.218 16.299-36.218 36.217 0 19.92 16.298 36.216 36.218 36.216h255.306c19.92 0 36.216-16.297 36.216-36.216z"  horiz-adv-x="1024" />

    
    <glyph glyph-name="fenxichangjingguanli_GIS" unicode="&#58965;" d="M593.92 821.4528a33.6896 33.6896 0 0 1-8.3968-66.8672A392.8064 392.8064 0 0 0 768.7168 680.96C648.3968 653.312 611.7376 569.4464 604.16 496.64c-11.264-104.7552 62.5664-159.744 111.3088-196.1984 17.1008-12.8 43.008-32.1536 44.2368-40.96 0-1.3312-1.024-5.7344-6.8608-13.1072C689.4592 165.2736 665.6 97.9968 682.7008 46.08a100.1472 100.1472 0 0 1 37.6832-50.3808 393.1136 393.1136 0 0 0-185.2416-46.3872h-9.3184c41.6768 70.9632 26.7264 124.5184 3.584 159.0272-56.2176 83.6608-140.288 109.568-219.4432 67.584-5.5296-2.9696-10.24-1.7408-35.7376 22.7328s-65.7408 62.0544-124.8256 51.2a411.7504 411.7504 0 0 0-11.4688 62.464 33.28 33.28 0 1 1-66.2528-6.5536A466.3296 466.3296 0 0 1 535.1424-117.76c256.8192 0 465.8176 211.456 465.8176 471.04 0 237.2608-174.7968 438.3744-407.04 468.1728zM450.56-41.1648a398.0288 398.0288 0 0 0-278.2208 226.2016c19.0464-0.7168 34.4064-13.9264 56.2176-34.6112 24.9856-23.8592 62.7712-59.5968 112.64-33.3824 65.8432 35.0208 111.9232-13.7216 133.12-45.7728 8.4992-12.5952 30.1056-44.8512-23.7568-112.4352z m334.0288 80.1792c-21.8112 6.3488-35.1232 15.872-39.3216 28.4672-8.9088 27.136 13.2096 78.2336 59.1872 136.8064a84.5824 84.5824 0 0 1 20.48 63.8976c-4.9152 37.376-36.864 61.44-70.656 86.4256-45.1584 33.6896-92.16 68.5056-84.6848 134.9632 5.7344 53.9648 29.3888 124.5184 162.9184 133.12a406.528 406.528 0 0 0-48.0256-583.68z m-538.5216 256a32.9728 32.9728 0 0 1 44.7488 0C444.2112 435.8144 518.5536 548.6592 518.5536 640A251.2896 251.2896 0 0 1 269.0048 892.6208 251.2896 251.2896 0 0 1 19.456 640c0-91.3408 74.3424-204.1856 227.1232-344.8832z m22.9376 530.2272A184.32 184.32 0 0 0 451.9936 640c0-46.1824-32.4608-130.6624-182.9888-274.0224C118.4768 509.3376 86.016 593.8176 86.016 640A184.32 184.32 0 0 0 269.0048 825.2416zM352.1536 640a83.1488 83.1488 0 1 1-83.1488-84.1728A83.6608 83.6608 0 0 1 352.1536 640z"  horiz-adv-x="1024" />

    
    <glyph glyph-name="yewufenxi_fenxizhongxin" unicode="&#58966;" d="M1013.76 384a501.76 501.76 0 1 1-564.3264-497.0496 247.1936 247.1936 0 0 1 51.2-4.7104 130.7648 130.7648 0 0 1 16.384 1.024A501.76 501.76 0 0 1 1013.76 384z m-71.68-7.0656a476.7744 476.7744 0 0 1-10.24 73.6256c0 8.3968 0.7168 16.384 0 24.064A422.0928 422.0928 0 0 0 942.08 384a24.6784 24.6784 0 0 0 0-7.0656zM81.92 384a430.7968 430.7968 0 0 0 9.0112 88.6784c18.7392-19.7632 62.2592-19.3536 72.9088 10.24 19.0464-11.3664 44.8512-13.4144 44.8512-36.1472 0-74.9568 2.6624-155.5456 70.9632-156.8768a96.6656 96.6656 0 0 0 55.1936-58.1632c6.0416-15.36 29.3888 0 55.1936 0 12.6976 0 0-21.7088 0-68.608s100.6592-118.784 100.6592-118.784a548.2496 548.2496 0 0 1 3.3792-75.9808 173.056 173.056 0 0 1-56.832-7.68A430.08 430.08 0 0 0 81.92 384z m536.1664-416.1536c-2.3552 11.0592-12.0832 17.1008-29.7984 12.3904 14.0288 60.5184 21.0944 94.3104 51.2 120.1152 42.8032 37.1712 5.0176 78.6432-27.4432 73.6256-25.8048-3.9936-9.3184 31.744-32.4608 33.792s-53.248 47.4112-86.3232 63.5904c-17.408 8.3968-34.816 30.72-61.44 31.4368-24.064 1.024-58.88-20.48-58.88-3.9936a1051.2384 1051.2384 0 0 1-6.3488 105.0624c-1.024 12.0832-7.9872 3.9936 24.3712 3.3792 17.7152 0 9.0112 35.4304 26.4192 36.7616s57.856-16.0768 68.1984-9.0112 70.9632-160.8704 70.9632-27.7504c0 15.7696-7.9872 43.52 0 58.1632 32.4608 59.1872 62.8736 107.4176 59.904 114.3808-1.6384 3.9936-33.0752 7.3728-58.5728-1.3312-8.704-2.9696 2.6624-16.0768-9.728-19.0464C501.76 547.84 460.8 571.2896 475.5456 593.1008s67.2768 9.728 71.68 54.1696c2.6624 25.3952 5.0176 54.8864 6.3488 76.9024 61.44-9.728 54.8864 80.2816-36.7616 90.0096a430.08 430.08 0 0 0 401.408-288.9728 17.408 17.408 0 0 1-10.24 4.7104C880.64 599.04 812.7488 548.864 835.7888 487.7312c-122.88-94.3104-91.3408-159.8464-51.2-197.7344A362.2912 362.2912 0 0 0 839.68 219.136c-14.336-41.7792 52.8384-25.088 86.016 45.8752a431.3088 431.3088 0 0 0-307.2-296.96z"  horiz-adv-x="1024" />

    
    <glyph glyph-name="icon_zhuanhuan-shangxia" unicode="&#58967;" d="M512.869791 895.283701a511.641851 511.641851 0 1 1 511.641851-511.64185 511.641851 511.641851 0 0 1-511.641851 511.64185zM460.477666 105.308684a30.698511 30.698511 0 0 0-30.698511-30.698511A30.698511 30.698511 0 0 0 404.197062 87.605876L247.736984 309.760767a30.698511 30.698511 0 0 0 49.833916 34.996303L399.080644 200.883382V661.975017a30.698511 30.698511 0 1 0 61.397022 0zM770.020985 415.05666a30.698511 30.698511 0 0 0-41.852303 7.367643L626.351954 566.502648v-461.193964a30.698511 30.698511 0 1 0-61.397022 0v556.666333a30.698511 30.698511 0 0 0 30.698511 30.698512 30.698511 30.698511 0 0 0 25.479764-12.995703L777.695613 457.625262a30.698511 30.698511 0 0 0-7.674628-42.568602z"  horiz-adv-x="1025" />

    
    <glyph glyph-name="fenxichangjingguanli_tupu" unicode="&#58968;" d="M513.2288-94.1056h-6.656L73.8304-10.8544a33.9968 33.9968 0 0 0-26.624 33.28V804.7616a35.4304 35.4304 0 0 0 11.5712 24.9856 36.6592 36.6592 0 0 0 26.624 8.2944l427.8272-66.56 427.8272 66.56a30.72 30.72 0 0 0 26.624-8.2944 35.4304 35.4304 0 0 0 11.6736-24.9856v-133.12a33.28 33.28 0 0 0-66.56 0v94.8224l-394.5472-61.44h-10.24l-394.5472 61.44v-715.776l399.36-78.2336 399.36 76.5952V471.8592a33.28 33.28 0 0 0 66.56 0v-449.4336A33.9968 33.9968 0 0 0 952.32-10.8544l-432.4352-83.2512zM753.152 551.2192a100.1472 100.1472 0 0 1-99.84-99.84 97.0752 97.0752 0 0 1 10.24-43.3152L588.288 332.8a134.9632 134.9632 0 0 1-68.1984 18.3296 125.0304 125.0304 0 0 1-86.528-33.28l-56.6272 56.9344a32.9728 32.9728 0 0 1-46.592-46.592l64.9216-64.9216A133.12 133.12 0 1 1 634.88 286.6176l74.9568 74.9568a97.0752 97.0752 0 0 1 43.3152-10.24 99.84 99.84 0 0 1 0 199.7824z m-233.0624-399.36a66.56 66.56 0 1 0 66.56 66.56 66.7648 66.7648 0 0 0-66.56-66.6624z m233.0624 266.24a33.28 33.28 0 1 0 33.28 33.28 33.3824 33.3824 0 0 0-33.28-33.28zM295.3216 302.08a108.2368 108.2368 0 1 0 108.2368 107.7248A108.032 108.032 0 0 0 295.3216 302.08z m0 149.8112a41.5744 41.5744 0 1 1 41.5744-41.5744 40.96 40.96 0 0 1-41.5744 41.0624z"  horiz-adv-x="1024" />

    
    <glyph glyph-name="icon_xuanzeshijianduan" unicode="&#58969;" d="M272.6912 651.6736a45.056 45.056 0 0 1 45.056 45.056V816.8448a45.056 45.056 0 0 1-90.112 0v-120.1152a45.056 45.056 0 0 1 45.056-45.056z m686.08 72.9088H856.064l2.1504-27.8528a105.0624 105.0624 0 0 0-210.2272 0l2.1504 27.8528H375.6032l2.1504-27.8528a105.0624 105.0624 0 1 0-210.2272 0l2.1504 27.8528H66.7648c-24.8832 0-34.304-9.4208-34.304-34.304v-744.2432a45.056 45.056 0 0 1 45.056-45.056h870.4a45.056 45.056 0 0 1 45.056 45.056V690.2784c0.3072 24.8832-9.1136 34.304-33.9968 34.304z m-68.608-720.6912H135.3728V484.352h754.9952v-480.3584zM753.0496 651.6736a45.056 45.056 0 0 1 45.056 45.056V816.8448a45.056 45.056 0 0 1-90.112 0v-120.1152a45.056 45.056 0 0 1 45.056-45.056zM307.2 278.528a68.608 68.608 0 1 1-68.608 68.608 68.608 68.608 0 0 1 68.608-68.608z m205.9264 0a68.608 68.608 0 1 1-68.608 68.608 68.608 68.608 0 0 1 68.3008-68.608z m205.9264 0a68.608 68.608 0 1 1-68.608 68.608 68.608 68.608 0 0 1 68.3008-68.608zM307.2 106.9056a68.608 68.608 0 1 1-68.608 68.608 68.608 68.608 0 0 1 68.608-68.608z m205.9264 0a68.608 68.608 0 1 1-68.608 68.608 68.608 68.608 0 0 1 68.3008-68.608z m205.9264 0a68.608 68.608 0 1 1-68.608 68.608 68.608 68.608 0 0 1 68.3008-68.608z"  horiz-adv-x="1024" />

    
    <glyph glyph-name="menu-baowen" unicode="&#58970;" d="M201.216 807.424h624.128l58.88-500.736 74.24 8.704L892.416 876.544h-757.76L68.608 315.904l74.24-8.704c-0.512 0 58.368 500.224 58.368 500.224zM262.144 750.592h502.272v-62.976H262.144V750.592z m0-125.44h502.272v-62.976H262.144V625.152z m0-125.44h502.272v-62.976H262.144V499.712z m0-125.44h502.272v-62.976H262.144v62.976z m721.92-125.44H42.496c-17.408 0-27.136-13.312-21.504-29.696l105.472-316.928c5.632-16.384 24.064-29.696 41.472-29.696h690.688c17.408 0 35.84 13.312 41.472 29.696l105.472 316.928c5.632 15.872-4.096 29.696-21.504 29.696zM638.976 122.88h-250.88v62.976h250.88V122.88zM105.984 315.904m-37.376 0a37.376 37.376 0 1 1 74.752 0 37.376 37.376 0 1 1-74.752 0ZM921.6 315.904m-37.376 0a37.376 37.376 0 1 1 74.752 0 37.376 37.376 0 1 1-74.752 0Z"  horiz-adv-x="1024" />

    
    <glyph glyph-name="menu-zuzhi" unicode="&#58971;" d="M1218.613099 131.463715h-101.392374V375.183272c0 13.854859-10.706027 25.190652-24.560886 25.190652h-0.629766l-432.01968 0.629766V509.323493H881.688129c22.671587 0 41.564576 18.892989 40.93481 42.194342v302.287823c0 22.671587-18.263223 41.564576-40.93481 42.194342H376.615559c-22.671587 0-41.564576-18.892989-40.93481-42.194342v-302.287823c0-22.671587 18.263223-41.564576 40.93481-42.194342H598.293296v-108.319803l-431.389914 0.629766c-13.854859 0-24.560886-11.335793-24.560886-25.190652v-244.979089H40.950122c-22.671587 0-41.564576-18.892989-40.934809-42.194342v-175.075031c0-22.671587 18.263223-41.564576 40.934809-42.194342h263.872079c22.671587 0 41.564576 18.892989 40.934809 42.194342v175.075031c0 22.671587-18.263223 41.564576-40.934809 42.194342h-100.762608V338.656827l394.863469-0.629767v-206.563345H497.530688c-22.671587 0-41.564576-18.892989-40.934809-42.194342v-175.075031c0-22.671587 18.263223-41.564576 40.934809-42.194342h263.872079c22.671587 0 41.564576 18.892989 40.934809 42.194342v175.075031c0 22.671587-18.263223 41.564576-40.934809 42.194342h-101.392374V338.02706l395.493235-0.629766v-205.933579h-101.392374c-22.671587 0-41.564576-18.892989-40.93481-42.194342v-175.075031c0-22.671587 18.263223-41.564576 40.93481-42.194342h263.872078c22.671587 0 41.564576 18.892989 40.93481 42.194342v175.075031c1.259533 23.301353-17.00369 42.194342-40.305043 42.194342z"  horiz-adv-x="1259" />

    
    <glyph glyph-name="gerenzhongxin_zhanghaoguanli" unicode="&#58972;" d="M1018.0608 28.672a390.0416 390.0416 0 0 1-279.2448 310.3744 242.9952 242.9952 0 1 1-353.28 215.552 244.3264 244.3264 0 0 1 127.488-215.04A390.0416 390.0416 0 0 1 233.3696 28.672a52.0192 52.0192 0 0 1 52.3264-59.392h679.936a52.0192 52.0192 0 0 1 52.3264 59.392zM296.0384 352.4608a24.4736 24.4736 0 0 1-13.824 23.8592 197.3248 197.3248 0 0 0-110.3872 177.3568 194.56 194.56 0 0 0 192.1024 196.096 24.3712 24.3712 0 0 1 0 48.8448A243.3024 243.3024 0 0 1 122.88 553.6768a247.5008 247.5008 0 0 1 94.208-193.9456A371.0976 371.0976 0 0 1 6.7584 80.1792a24.3712 24.3712 0 0 1 20.48-27.8528h3.6864a24.2688 24.2688 0 0 1 23.9616 20.48 321.4336 321.4336 0 0 0 223.8464 258.2528 24.2688 24.2688 0 0 1 17.3056 21.4016z"  horiz-adv-x="1024" />

    
    <glyph glyph-name="icon_zuidahua-suoxiao" unicode="&#58973;" d="M466.944 378.88a52.0192 52.0192 0 0 0 52.0192-52.0192v-401.1008a52.0192 52.0192 0 0 0-103.936 0V326.8608l52.0192-52.0192H59.0848a52.0192 52.0192 0 1 0 0 103.936zM560.8448 385.8432a52.0192 52.0192 0 0 0-52.0192 52.0192V838.8608a52.0192 52.0192 0 0 0 103.936 0v-401.1008l-52.0192 52.0192H968.704a52.0192 52.0192 0 1 0 0-103.936z"  horiz-adv-x="1024" />

    
    <glyph glyph-name="menu-biaoqian" unicode="&#58974;" d="M885.248 891.392h-747.52c-31.744 0-57.344-25.6-57.344-57.344v-900.096c0-31.744 25.6-57.344 57.344-57.344 11.264 0 22.528 3.584 32.256 9.728l266.752 193.536 70.144 45.568h10.24l70.144-46.08 266.24-192.512c26.112-17.92 61.952-11.264 79.872 14.848 6.656 9.728 10.24 20.992 10.24 32.256V834.048C942.592 865.792 916.992 891.392 885.248 891.392zM638.464 292.352c-5.12 0-11.264 1.536-15.872 4.096L512 351.744l-111.104-55.296c-11.264-6.144-25.6-5.12-35.84 2.56s-15.872 20.992-13.824 33.792l23.04 118.784-87.04 81.408c-9.216 9.216-12.8 23.552-9.216 35.84 4.096 12.8 14.336 22.016 28.16 23.552L427.008 614.4 481.28 724.48c6.144 11.776 17.92 19.456 30.72 19.456s25.6-7.68 30.72-19.456L596.48 614.4l121.344-20.992c12.8-1.536 23.552-11.264 27.136-23.552 4.096-12.8 1.024-26.112-8.704-35.84l-87.552-82.432L670.72 332.8c2.56-13.312-3.584-26.112-13.312-33.792-4.608-4.096-11.776-6.656-18.944-6.656z"  horiz-adv-x="1024" />

    
    <glyph glyph-name="fenxichangjingguanli_shixu" unicode="&#58975;" d="M290.714 572.4159999999999H697.344a33.0752 33.0752 0 0 1 32.9728 32.9728v6.5536a33.0752 33.0752 0 0 1-32.9728 32.9728H290.714a33.0752 33.0752 0 0 1-32.9728-32.9728v-6.5536a33.0752 33.0752 0 0 1 32.9728-32.9728ZM257.741 404.48a33.0752 33.0752 0 0 1 32.9728-32.9728H594.944A33.0752 33.0752 0 0 1 627.917 404.48v6.5536a33.0752 33.0752 0 0 1-32.9728 32.9728H290.714a33.0752 33.0752 0 0 1-32.9728-32.9728ZM813.466 849.6128H204.8a101.274 101.274 0 0 1-101.171-101.171V5.1200000000000045A101.274 101.274 0 0 1 204.8-95.846h317.44c0 26.2144 36.4544 67.4816-7.0656 67.4816H204.8A33.792 33.792 0 0 0 170.803 5.1200000000000045V748.442a33.792 33.792 0 0 0 33.9968 33.792h608.666a33.792 33.792 0 0 0 33.6896-33.6896v-274.125h67.4816V748.442a101.274 101.274 0 0 1-101.171 101.171ZM880.742 477.389m-33.28 0a33.28 33.28 0 1 1 66.56 0 33.28 33.28 0 1 1-66.56 0ZM520.397-62.15700000000004m-33.28 0a33.28 33.28 0 1 1 66.56 0 33.28 33.28 0 1 1-66.56 0ZM770.56 378.88A238.08 238.08 0 1 1 1008.64 140.79999999999995 238.08 238.08 0 0 1 770.56 378.88Zm0-419.84A181.76 181.76 0 1 0 952.32 140.79999999999995 181.76 181.76 0 0 0 770.56-40.960000000000036ZM737.28 271.36m33.28 0l0 0q33.28 0 33.28-33.28l0-89.6q0-33.28-33.28-33.28l0 0q-33.28 0-33.28 33.28l0 89.6q0 33.28 33.28 33.28ZM903.528 62.65499999999997m-23.5325-23.5325l0 0q-23.5325-23.5325-47.065 0l-85.1515 85.1515q-23.5325 23.5325 0 47.065l0 0q23.5325 23.5325 47.065 0l85.1515-85.1515q23.5325-23.5325 0-47.065Z"  horiz-adv-x="1024" />

    
    <glyph glyph-name="gerenzhongxin_shoucangbaowen" unicode="&#58976;" d="M295.834 577.5360000000001H702.464a33.0752 33.0752 0 0 1 32.9728 32.9728v6.5536A33.0752 33.0752 0 0 1 702.464 650.24H295.834a33.0752 33.0752 0 0 1-32.9728-32.9728v-6.5536a33.0752 33.0752 0 0 1 32.9728-33.1776ZM262.861 409.293a33.0752 33.0752 0 0 1 32.9728-32.9728H600.064a33.0752 33.0752 0 0 1 32.9728 32.9728v6.5536a33.0752 33.0752 0 0 1-32.9728 32.9728H295.834a33.0752 33.0752 0 0 1-32.9728-32.9728ZM818.586 855.04H209.613a101.274 101.274 0 0 1-101.171-101.171v-743.424a101.274 101.274 0 0 1 101.171-101.171h317.44c0 26.2144 36.4544 67.4816-7.0656 67.4816H209.613a33.792 33.792 0 0 0-33.6896 33.6896V753.562a33.792 33.792 0 0 0 33.6896 33.6896h608.973a33.792 33.792 0 0 0 33.6896-33.6896v-274.022h67.4816V753.562A101.274 101.274 0 0 1 818.586 855.04ZM1020.42 242.89300000000003a35.4304 35.4304 0 0 1-28.672 22.7328l-129.331 18.6368-56.2176 112.64a36.864 36.864 0 0 1-65.024 0l-56.2176-112.64-129.434-18.6368a35.4304 35.4304 0 0 1-28.672-22.7328 32.3584 32.3584 0 0 1 8.3968-34.4064l94.8224-91.648-22.016-127.078a33.1776 33.1776 0 0 1 14.7456-33.1776 37.7856 37.7856 0 0 1 20.48-6.144 38.1952 38.1952 0 0 1 17.3056 4.1984l112.64 56.9344 112.64-56.9344a38.2976 38.2976 0 0 1 17.408-4.1984 37.7856 37.7856 0 0 1 20.48 6.144 33.0752 33.0752 0 0 1 14.6432 33.1776l-21.0944 127.078 94.8224 91.648a32.4608 32.4608 0 0 1 8.2944 34.4064Zm-158.515-86.016a36.9664 36.9664 0 0 1-11.264-26.624 36.0448 36.0448 0 0 1 0.512-6.3488l14.1312-81.92-75.0592 37.888a36.9664 36.9664 0 0 1-33.3824 0l-75.0592-37.888 14.2336 81.92a36.0448 36.0448 0 0 1 0.512 6.3488 36.9664 36.9664 0 0 1-11.264 26.624l-59.6992 57.6512 82.7392 11.8784a36.9664 36.9664 0 0 1 27.8528 20.48l37.2736 74.9568 37.2736-74.9568a36.9664 36.9664 0 0 1 27.8528-20.48L921.6 214.52800000000002ZM885.862 482.509m-33.28 0a33.28 33.28 0 1 1 66.56 0 33.28 33.28 0 1 1-66.56 0ZM525.517-57.037000000000035m-33.28 0a33.28 33.28 0 1 1 66.56 0 33.28 33.28 0 1 1-66.56 0Z"  horiz-adv-x="1024" />

    
    <glyph glyph-name="view_shixu" unicode="&#58977;" d="M784.384 427.7248A208.2816 208.2816 0 0 1 575.488 220.16a202.8544 202.8544 0 0 1 42.3936-125.3376l113.4592-152.8832L202.5472 250.88l343.552 294.912h0.6144a9.3184 9.3184 0 0 1 5.632 2.4576l95.4368 133.12a124.928 124.928 0 0 1 20.48 69.2224 121.6512 121.6512 0 1 1-243.2 0 129.6384 129.6384 0 0 1 24.3712-75.4688l76.0832-105.984-247.5008-212.5824 33.6896 45.568a161.0752 161.0752 0 0 1-132.1984 250.0608A160.256 160.256 0 0 1 52.9408 395.264l119.7056-163.84a8.6016 8.6016 0 0 1 6.8608-3.7888h0.6144l601.088-350.6176 1.2288 2.4576h1.8432a13.312 13.312 0 0 1 9.3184 4.4032l164.7616 220.7744A205.7216 205.7216 0 0 1 993.28 220.16a208.2816 208.2816 0 0 1-208.896 207.5648z m-281.9072 323.584a44.9536 44.9536 0 1 0 89.8048 0 44.9536 44.9536 0 1 0-89.8048 0zM120.2176 491.9296a58.7776 58.7776 0 0 0 59.2896 59.2896 59.5968 59.5968 0 0 0 59.2896-59.2896 59.2896 59.2896 0 0 0-118.4768 0z m664.1664-349.184A76.9024 76.9024 0 0 0 706.56 220.16a77.7216 77.7216 0 0 0 77.312 77.312 77.312 77.312 0 0 0 0-154.624z"  horiz-adv-x="1024" />

    
    <glyph glyph-name="yewufenxi_fenxipizhu_shijian" unicode="&#58978;" d="M873.5744 745.6768a512 512 0 0 1-723.5584 0A510.976 510.976 0 0 1 512-126.6688a511.0784 511.0784 0 0 1 361.984 872.448z m-47.2064-675.84a444.416 444.416 0 1 0 0 628.4288 442.5728 442.5728 0 0 0 0-628.1216zM732.7744 259.1744l-176.8448 102.4V640A42.7008 42.7008 0 0 1 471.04 640v-298.1888c0-15.872 19.6608-28.9792 32.4608-36.352A63.488 63.488 0 0 1 522.24 291.84l176.0256-106.496a38.1952 38.1952 0 0 1 54.272 15.6672c11.6736 20.2752 0.7168 46.3872-19.7632 58.1632z"  horiz-adv-x="1024" />

    
    <glyph glyph-name="landing_sn" unicode="&#58979;" d="M513.6384 368.4352a68.096 68.096 0 0 1-68.7104-65.4336 71.68 71.68 0 0 1 34.7136-58.88v-110.7968a34.7136 34.7136 0 0 1 69.4272 0V244.6336A66.9696 66.9696 0 0 1 583.68 303.616c-4.608 33.9968-36.0448 64.8192-70.0416 64.8192zM787.6608 561.152H747.52v61.44a212.6848 212.6848 0 0 1-30.72 105.984 218.4192 218.4192 0 0 1-77.824 74.5472 174.08 174.08 0 0 1-36.0448 15.9744 251.2896 251.2896 0 0 1-75.3664 12.6976c-53.3504 1.3312-99.328-7.9872-135.3728-28.672a212.8896 212.8896 0 0 1-108.544-185.344v-57.344h-37.2736a109.8752 109.8752 0 0 1-109.9776-112.64v-416.6656a110.2848 110.2848 0 0 1 109.9776-112.64h541.2864a109.8752 109.8752 0 0 1 109.9776 112.64V447.7952A110.8992 110.8992 0 0 1 787.6608 561.152z m-437.3504 57.344a143.9744 143.9744 0 0 0 20.48 74.0352 151.3472 151.3472 0 0 0 53.9648 52.6336 192.6144 192.6144 0 0 0 101.376 20.48 213.9136 213.9136 0 0 0 56.0128-9.3184 130.9696 130.9696 0 0 0 23.9616-10.24 145.92 145.92 0 0 0 74.6496-124.0064v-60.6208h-329.728V618.496z m480.768-587.3664A44.3392 44.3392 0 0 0 787.6608-15.36H246.3744a43.9296 43.9296 0 0 0-43.3152 45.9776V447.7952a44.3392 44.3392 0 0 0 43.3152 45.9776h541.2864a43.9296 43.9296 0 0 0 43.3152-45.9776z"  horiz-adv-x="1024" />

    
    <glyph glyph-name="landing_user" unicode="&#58980;" d="M929.69-32.25599999999997v3.9936a40.96 40.96 0 0 1-0.9216 8.2944 411.648 411.648 0 0 1-245.76 325.53 287.949 287.949 0 1 1-324.915 0A411.75 411.75 0 0 1 112.64-15.360000000000013a40.96 40.96 0 0 1-2.2528-13.4144v-3.1744a40.96 40.96 0 1 1 81.92 0h0.7168a328.909 328.909 0 0 0 309.35 287.846c5.9392 0 11.8784-0.6144 17.92-0.6144s11.9808 0 17.92 0.6144a328.909 328.909 0 0 0 308.531-288.154h0.8192a40.96 40.96 0 1 1 81.92 0Zm-409.6 369.664a205.619 205.619 0 1 0 205.824 205.722A205.619 205.619 0 0 0 520.192 337.51Z"  horiz-adv-x="1024" />

    
    <glyph glyph-name="icon_bianji_" unicode="&#58981;" d="M512 896C229.376 896 0 666.624 0 384s229.376-512 512-512 512 229.376 512 512S794.624 896 512 896z m0-970.752c-252.928 0-458.752 204.8-458.752 458.752S259.072 841.728 512 841.728s458.752-204.8 458.752-458.752S764.928-74.752 512-74.752zM748.544 214.016H275.456c-10.24 0-17.408-8.192-17.408-17.408S266.24 179.2 275.456 179.2h475.136c10.24 0 17.408 8.192 17.408 17.408-2.048 8.192-9.216 17.408-19.456 17.408z m-475.136 53.248h83.968c4.096 0 10.24 2.048 12.288 6.144l290.816 290.816c8.192 8.192 8.192 17.408 0 25.6l-82.944 83.968c-8.192 8.192-17.408 8.192-25.6 0l-59.392-59.392-230.4-231.424c-4.096-4.096-6.144-8.192-6.144-12.288v-83.968c0-4.096 2.048-10.24 6.144-13.312 1.024-4.096 7.168-6.144 11.264-6.144z m290.816 368.64l59.392-59.392-33.792-33.792-59.392 59.392 33.792 33.792zM292.864 363.52l214.016 214.016 59.392-59.392-214.016-214.016h-59.392V363.52z"  horiz-adv-x="1024" />

    
    <glyph glyph-name="icon_shanchu_" unicode="&#58982;" d="M512 896C229.376 896 0 666.624 0 384s229.376-512 512-512 512 229.376 512 512S794.624 896 512 896z m0-970.752c-252.928 0-458.752 204.8-458.752 458.752S259.072 841.728 512 841.728s458.752-204.8 458.752-458.752S764.928-74.752 512-74.752zM581.632 223.232c-12.288 0-23.552 10.24-23.552 23.552V500.736c-1.024 12.288 9.216 23.552 22.528 24.576 12.288 1.024 23.552-9.216 24.576-22.528v-256c-1.024-13.312-11.264-23.552-23.552-23.552m-139.264 0c-12.288 0-23.552 10.24-23.552 23.552V500.736c-1.024 12.288 9.216 23.552 22.528 24.576 12.288 1.024 23.552-9.216 24.576-22.528v-256c0-13.312-10.24-23.552-23.552-23.552m370.688 369.664H697.344v23.552c0 37.888-30.72 69.632-68.608 69.632H396.288c-37.888 0-69.632-30.72-69.632-69.632v-23.552H210.944c-12.288 0-23.552-10.24-23.552-23.552s10.24-23.552 23.552-23.552h601.088c12.288 0 23.552 10.24 23.552 23.552 0 13.312-10.24 23.552-22.528 23.552m-439.296 23.552c0 12.288 10.24 23.552 23.552 23.552h231.424c12.288 0 22.528-10.24 22.528-22.528v-24.576H373.76v23.552m300.032-531.456H350.208c-37.888 0-69.632 30.72-69.632 69.632V500.736c-1.024 12.288 9.216 23.552 22.528 24.576 12.288 1.024 23.552-9.216 24.576-22.528v-349.184c0-13.312 10.24-23.552 22.528-23.552h323.584c12.288 0 23.552 10.24 23.552 23.552V500.736c-1.024 12.288 9.216 23.552 22.528 24.576 12.288 1.024 23.552-9.216 24.576-22.528v-348.16c-1.024-38.912-31.744-69.632-70.656-69.632z"  horiz-adv-x="1024" />

    
    <glyph glyph-name="icon_xuanze" unicode="&#58983;" d="M512 896C229.376 896 0 666.624 0 384s229.376-512 512-512 512 229.376 512 512S794.624 896 512 896z m0-970.752c-252.928 0-458.752 204.8-458.752 458.752S259.072 841.728 512 841.728s458.752-204.8 458.752-458.752S764.928-74.752 512-74.752zM777.216 510.976L467.968 202.752c-15.36-15.36-39.936-15.36-55.296 0L247.808 368.64c-15.36 15.36-14.336 39.936 1.024 55.296 15.36 14.336 38.912 14.336 54.272 0L440.32 285.696l280.576 280.576c15.36 15.36 39.936 14.336 55.296-1.024 15.36-15.36 15.36-39.936 1.024-54.272z"  horiz-adv-x="1024" />

    
    <glyph glyph-name="zhishitupu" unicode="&#58984;" d="M863.993856 32.016354a127.997948 127.997948 0 0 1 0 255.994895 127.997948 127.997948 0 0 1-63.999974-17.919992l-90.877963 89.598963a157.436935 157.436935 0 0 1-5.119998 186.235924l47.999981 72.31897a127.997948 127.997948 0 1 1-50.55998 39.679984l-46.718981-70.399971a155.516936 155.516936 0 0 1-176.635927-11.519996l-132.477946 85.759965a155.516936 155.516936 0 0 1-40.319983 155.515936 159.996934 159.996934 0 1 1 0-226.554907 161.916934 161.916934 0 0 1 10.879995 13.439995l120.317951-79.999967a150.396938 150.396938 0 0 1-14.079994-117.116952l-102.397958-52.479979a159.356935 159.356935 0 1 1 31.999987-98.55696 158.076935 158.076935 0 0 1-5.759998 40.958984l101.757958 52.478978a159.356935 159.356935 0 0 1 85.758965-56.319977l-39.039984-165.115932H480.000013a127.997948 127.997948 0 1 1 74.879969-24.31999l46.717981 186.876923a158.716935 158.716935 0 0 1 63.999974 24.31999l90.237963-90.238963a127.997948 127.997948 0 0 1-17.919993-63.998973 127.997948 127.997948 0 0 1 126.077949-128.636948z m-604.149753 604.148753a95.997961 95.997961 0 1 0 28.159989 67.837972 95.997961 95.997961 0 0 0-28.159989-67.837972z m-67.837972-476.151805a95.997961 95.997961 0 1 0 95.997961 95.99896 95.997961 95.997961 0 0 0-95.997961-95.99896zM480.000013-63.982606a63.998974 63.998974 0 1 0 63.997974 63.999973 63.998974 63.998974 0 0 0-63.997974-63.999973z m447.990816 223.995908a63.998974 63.998974 0 1 0-63.997973 63.999974 63.998974 63.998974 0 0 0 63.997973-63.999974zM799.994882 800.002039a63.998974 63.998974 0 1 0-63.999974-63.999973 63.998974 63.998974 0 0 0 63.999974 63.999973zM480.000013 448.008184a95.997961 95.997961 0 1 0 95.997961-95.997961A95.997961 95.997961 0 0 0 480.000013 448.008184z"  horiz-adv-x="1024" />

    
    <glyph glyph-name="-ditu" unicode="&#58985;" d="M561.235 84.508L499.98 121.44l-16.563-24.994 61.255-36.932 16.563 24.994m73.043 180.556c-0.485 0.746-1.156 1.492-1.641 2.238-16.936 28.725-50.026 86.174-81.138 148.474-3.134 6.342-9.625 10.445-16.675 10.445H389.52l244.758-161.157m309.519-203.685l-65.619 240.617-97.105-133.552 162.724-107.065M749.886 188.962l115.72 159.292-17.533 64.165c-2.201 8.207-12.721 13.803-21.152 13.803-7.051 0-13.542-4.104-16.675-10.445-31.112-62.299-64.202-119.749-81.138-148.474-10.035-17.16-28.501-27.606-48.235-27.606-3.357 0-6.603 0.746-9.848 1.492l78.861-52.227m-387.971-88.413l-227.71 151.832-68.193-250.316c-1.53-5.596-0.373-11.565 3.171-16.041 3.507-4.85 8.99-7.461 14.81-7.461h186.525l91.397 121.986M478.828 156.88c5.484 8.207 16.489 10.818 25.106 5.596l93.262-55.957c4.402-2.611 7.498-7.088 8.617-11.938 1.119-4.85 0.149-10.072-2.686-14.549l-37.303-55.958c-3.581-5.223-9.475-8.207-15.519-8.207-3.283 0-6.603 0.746-9.587 2.611l-93.262 55.957c-4.402 2.611-7.498 7.088-8.617 11.938s-0.149 10.072 2.686 14.549l37.303 55.958z m345.631-178.318L486.252 203.884 317.149-21.438h507.31z m134.186 28.725l-637.02 418.935H220.193l671.489-447.66h50.324c5.82 0 11.303 2.611 14.81 7.461 3.544 4.477 4.7 10.445 3.171 16.041l-1.342 5.223M144.539 290.059l239.796-159.666 70.842 94.382L177.255 410.18l-32.716-120.121m536.333 285.382c-30.851 0-55.957 24.994-55.957 55.957s25.106 55.957 55.957 55.957 55.957-24.994 55.957-55.957-25.106-55.957-55.957-55.957z m0 223.83C588.318 799.271 513 723.915 513 631.399c0-85.055 136.275-318.957 151.794-345.071 3.357-5.969 9.475-9.326 16.078-9.326s12.721 3.357 16.078 9.326c15.519 26.113 151.794 260.016 151.794 345.071 0 92.516-75.318 167.872-167.872 167.872z"  horiz-adv-x="1024" />

    
    <glyph glyph-name="pizhu" unicode="&#58881;" d="M348.16 320.853v-133.12h133.12l389.12 389.12-133.12 133.12-389.12-389.12zM972.8 728.747l-81.92 81.92c-13.653 13.653-35.84 13.653-49.493 0L778.24 747.52 911.36 614.4l59.733 66.56c15.36 13.653 15.36 34.133 1.707 47.787zM768-68.267H170.667c-51.2 0-92.16 40.96-92.16 92.16V619.52c0 51.2 40.96 92.16 92.16 92.16h298.666c22.187 0 39.254-17.067 39.254-39.253s-17.067-39.254-39.254-39.254H170.667c-8.534 0-13.654-6.826-13.654-13.653v-595.627c0-8.533 6.827-13.653 13.654-13.653H768c8.533 0 13.653 6.827 13.653 13.653v296.96c0 22.187 17.067 39.254 39.254 39.254 22.186 0 39.253-17.067 39.253-39.254v-298.666c0-49.494-42.667-90.454-92.16-90.454z"  horiz-adv-x="1024" />

    
    <glyph glyph-name="gonggong_yincang" unicode="&#58882;" d="M72.176 811.794l932.276-926.261c18.044-18.044 42.103-18.044 60.147 0 18.044 18.044 18.044 42.103 0 60.147L872.13 138.15c90.22 60.147 150.367 138.338 186.455 240.587-42.102 108.264-108.264 192.47-204.499 252.617-96.235 60.147-210.514 96.235-324.793 96.235-66.161 6.015-138.338-12.03-198.484-30.074L132.323 883.971c-18.044 18.044-42.103 18.044-60.147 0-18.044-18.044-18.044-54.133 0-72.177z m354.867-216.528c36.088 18.044 72.176 24.059 108.264 24.059 132.323 0 234.573-108.265 240.587-240.588 0-36.088-6.014-72.176-24.058-108.264l-72.177 72.176v36.088c0 36.088-18.044 72.176-42.102 96.235-24.06 24.059-60.147 42.103-96.235 42.103h-42.103l-72.176 78.19z m6.014-312.764c24.059-24.059 60.147-42.103 96.235-42.103L390.954 390.767v-6.015c0-42.103 18.045-78.191 42.103-102.25zM0 420.84c42.103-108.264 108.264-198.485 204.5-264.646 96.234-66.162 216.528-102.25 330.807-102.25 60.147 0 132.323 6.015 186.455 36.088l-96.235 102.25c-24.059-12.03-60.147-18.044-90.22-18.044-132.323 0-240.587 108.264-240.587 246.602 0 36.088 12.029 66.161 18.044 90.22L168.41 655.413C96.235 589.25 36.088 511.06 0 420.84z"  horiz-adv-x="1082" />

    
    <glyph glyph-name="guanxitupu" unicode="&#58883;" d="M1145.993-90.795H491.179c-45.261 0-81.92 36.864-81.92 82.193v493.09c0 45.398 36.659 82.194 81.92 82.194h122.743a40.96 40.96 0 0 0 40.96-41.097 40.96 40.96 0 0 0-40.96-41.096H491.18v-493.09h654.814v493.09H941.397a40.96 40.96 0 0 0-40.891 41.096 40.96 40.96 0 0 0 40.96 41.097h204.595c45.192 0 81.92-36.864 81.92-82.193v-493.09c0-45.398-36.728-82.194-81.92-82.194z m-409.26 328.773h-122.81a40.96 40.96 0 0 0 0 82.124h122.81V813.192H81.853v-493.09h204.663a40.96 40.96 0 0 0 40.96-41.096 40.96 40.96 0 0 0-40.96-41.097H81.852C36.659 237.91 0 274.773 0 320.102V813.192C0 858.59 36.66 895.387 81.92 895.387h654.814c45.192 0 81.852-36.864 81.852-82.193v-493.09c0-45.33-36.66-82.125-81.92-82.125z"  horiz-adv-x="1228" />

    
    <glyph glyph-name="comiisfaxian" unicode="&#58884;" d="M838.892 384.448c0 70.838-21.96 138.832-63.573 196.667-9.62 13.384-28.29 16.465-41.708 6.842-13.384-9.618-16.46-28.29-6.81-41.706 34.235-47.62 52.31-103.575 52.31-161.83 0-58.26-18.075-114.184-52.31-161.808-9.65-13.409-6.605-32.054 6.81-41.704a29.98 29.98 0 0 1 17.418-5.585c9.318 0 18.43 4.33 24.256 12.426 41.617 57.872 63.607 125.868 63.607 196.698z m0 0M286.653 587.957c-13.448 9.651-32.088 6.607-41.707-6.842-41.529-57.835-63.487-125.83-63.487-196.667 0-70.831 21.958-138.826 63.487-196.665a29.866 29.866 0 0 1 24.287-12.459 29.798 29.798 0 0 1 17.42 5.615c13.384 9.62 16.462 28.29 6.839 41.706-34.208 47.592-52.278 103.547-52.278 161.802 0 58.26 18.07 114.215 52.278 161.834 9.622 13.386 6.545 32.057-6.839 41.676z m0 0M827.805 732.765c-10.932 12.427-29.781 13.653-42.153 2.775-12.394-10.871-13.653-29.752-2.775-42.152 75.252-85.833 116.69-195.532 116.69-308.94 0-113.403-41.466-223.104-116.69-308.937-10.878-12.395-9.62-31.276 2.775-42.153a29.86 29.86 0 0 1 19.72-7.408c8.275 0 16.58 3.437 22.465 10.188 84.817 96.706 131.511 220.416 131.511 348.311 0 127.895-46.726 251.579-131.543 348.316z m0 0M123.683 384.448c0 113.408 41.434 223.107 116.632 308.94 10.872 12.426 9.65 31.28-2.782 42.152-12.427 10.906-31.275 9.652-42.12-2.775-84.786-96.704-131.452-220.42-131.452-348.316 0-127.894 46.666-251.605 131.452-348.31 5.885-6.752 14.158-10.189 22.465-10.189a29.84 29.84 0 0 1 19.688 7.408c12.427 10.877 13.653 29.758 2.776 42.153-75.225 85.801-116.659 195.534-116.659 308.937z m0 0M513.105 593.574c-115.318 0-209.125-93.805-209.125-209.125 0-59.152 25.392-115.882 69.697-155.587 12.305-11.023 31.188-9.98 42.184 2.328 11.022 12.281 9.978 31.162-2.303 42.185-31.666 28.35-49.8 68.863-49.8 111.074 0 82.365 67.008 149.376 149.374 149.376 82.37 0 149.376-67.01 149.376-149.376 0-82.364-67.006-149.375-149.376-149.375H502.68c-12.67 0-23.962-8.004-28.172-19.957-7.144-20.313-18.526-38.538-33.761-54.16-11.5-11.833-11.265-30.743 0.569-42.245a29.8 29.8 0 0 1 20.853-8.482 29.788 29.788 0 0 1 21.388 9.02c16.314 16.757 29.457 35.612 39.226 56.312 110.87 5.052 199.507 96.828 199.507 208.918-0.061 115.288-93.868 209.094-209.185 209.094z m0 0"  horiz-adv-x="1024" />

    
    <glyph glyph-name="celiangpizhu" unicode="&#58885;" d="M1005.065 593.041v75.74h-75.74v-75.74h-37.87v75.74h-75.739v-75.74h-37.87v113.61h-75.74v-113.61h-37.87v75.74h-75.739v-75.74h-37.87v75.74h-75.74v-75.74h-75.89v151.48h643.938v-151.48h-37.87z m-757.396-37.87h75.74v-37.87h-75.74v-75.739h75.74v-37.87h-75.74v-75.74h75.74v-37.87h-75.74v-75.739h75.74v-37.87h-113.61v-75.74h113.61v-37.87h-75.74v-75.739h75.74v-75.74h-151.48V592.929h0.34v188.97h-0.34V858.13h151.48v-113.61h0.454v-151.479h-76.194v-37.87z m-227.22 189.35h75.589v-151.48H20.45v151.48z m510.334-688.474l88.767-88.767-14.769-13.784-129.893-42.111 41.43 130.045 14.465 14.617z m67.295 61.917l200.407 200.862 82.746-82.746L680.824 35.22l-82.746 82.745z m315.342 316.1a28.327 28.327 0 0 0 40.18 0l42.452-42.604a28.516 28.516 0 0 0 0-40.255L945.761 300.8l-82.746 82.746 50.405 50.518z"  horiz-adv-x="1105" />

    
    <glyph glyph-name="shujuyingshex" unicode="&#58886;" d="M741.547 285.44a64 64 0 1 1 7.68 42.667L518.4 360.96a85.333 85.333 0 0 1-9.387 23.893l203.094 189.014a64 64 0 1 1-29.44 31.146l-204.374-190.72a85.333 85.333 0 0 1-42.666 12.374l-30.294 180.48a64 64 0 1 1-42.666-9.387l29.013-182.613a85.333 85.333 0 0 1-42.667-61.014l-88.746-12.8a64 64 0 1 1 0-42.666l93.866 11.946a85.333 85.333 0 0 1 36.694-42.666l-24.32-81.494a64 64 0 1 1 42.666-9.813L433.067 256h2.133a85.333 85.333 0 0 1 38.827 9.387l96.426-85.334a64 64 0 1 1 31.147 29.44l-95.573 85.334a85.333 85.333 0 0 1 11.093 23.466zM128 625.493a21.333 21.333 0 0 1 21.333 21.334v99.84H256a21.333 21.333 0 0 1 0 42.666H149.333a42.667 42.667 0 0 1-42.666-42.666v-99.84A21.333 21.333 0 0 1 128 625.493z m110.507-604.16h-89.174v93.44a21.333 21.333 0 0 1-42.666 0v-93.44a42.667 42.667 0 0 1 42.666-42.666h89.174a21.333 21.333 0 0 1 0 42.666z m636.16 768H757.76a21.333 21.333 0 0 1 0-42.666h116.907v-99.84a21.333 21.333 0 0 1 42.666 0v99.84a42.667 42.667 0 0 1-42.666 42.666zM896 137.387a21.333 21.333 0 0 1-21.333-21.334v-94.72h-93.014a21.333 21.333 0 0 1 0-42.666h93.014a42.667 42.667 0 0 1 42.666 42.666v94.72A21.333 21.333 0 0 1 896 137.387z"  horiz-adv-x="1024" />

    
    <glyph glyph-name="quanjubianliang" unicode="&#58887;" d="M872.013 746.56a509.453 509.453 0 0 1-720.592 0l-3.963-4.528a509.453 509.453 0 0 1 716.63-722.857l4.529 3.963a509.453 509.453 0 0 1 3.396 723.423z m-47.549-687.195c-38.492-34.53-143.212-7.358-262.65 69.06a83.777 83.777 0 0 1 3.396 39.058c28.868 24.34 56.605 49.813 86.606 78.116a1271.368 1271.368 0 0 1 92.268 103.022c88.871-131.891 121.137-245.103 83.21-286.425z m-632.853 6.793c-30.567 30.567 0 131.892 79.248 250.198a1159.854 1159.854 0 0 1 80.946-90.003c16.416-16.416 33.398-32.266 50.38-46.983a83.777 83.777 0 0 1 3.396-56.606c-101.89-61.7-186.233-83.777-213.97-56.606z m-6.227 633.42c36.794 33.963 135.854 10.189 250.198-60.569a84.343 84.343 0 0 1 0-53.775c-22.076-19.246-44.719-39.624-66.795-61.7a1264.009 1264.009 0 0 1-101.89-113.212c-86.041 130.76-118.873 247.933-81.513 289.256z m206.612-433.035a1087.399 1087.399 0 0 0-86.607 97.928A1182.496 1182.496 0 0 0 411.808 486.74c20.944 20.944 41.888 40.19 63.398 56.605a82.645 82.645 0 0 1 90.004 2.83c18.68-16.415 37.925-33.397 56.605-52.077a1087.399 1087.399 0 0 0 87.74-99.626 1188.723 1188.723 0 0 0-97.363-109.815c-24.34-24.34-48.68-45.851-73.021-66.795a83.21 83.21 0 0 1-103.589 5.66c-14.717 15.284-29.435 28.303-43.586 43.02z m206.611 371.334c113.212 70.758 204.347 97.928 233.782 69.06s0-139.817-88.305-263.218a1158.156 1158.156 0 0 1-82.645 92.268 809.927 809.927 0 0 1-62.832 56.606 83.777 83.777 0 0 1 0 45.284zM779.746 396.17A627.759 627.759 0 0 1 892.957 630.52a452.847 452.847 0 0 0 0-484.547A607.947 607.947 0 0 1 780.312 396.17z m-24.34 371.9a569.455 569.455 0 0 1-186.8-83.776 82.645 82.645 0 0 1-92.834 0 550.775 550.775 0 0 1-204.347 85.475 452.847 452.847 0 0 0 483.98-1.698z m-636.25-155.1a622.664 622.664 0 0 1 113.211-246.8 609.645 609.645 0 0 1-104.155-220.764 452.847 452.847 0 0 0-9.057 467.565zM269.16 4.459a556.436 556.436 0 0 1 177.176 76.984 83.21 83.21 0 0 1 78.682 3.962 583.04 583.04 0 0 1 213.404-91.701 452.847 452.847 0 0 0-469.262 10.755z"  horiz-adv-x="1024" />

    
    <glyph glyph-name="quanjushezhi" unicode="&#58888;" d="M545.44 501.835c-66.859 0-120.892-54.578-120.892-120.891 0-66.857 54.033-120.89 120.891-120.89a120.755 120.755 0 0 1 120.89 120.822 120.755 120.755 0 0 1-120.89 120.89z m482.127 42.98h-5.663A133.102 133.102 0 0 0 888.325 677.37c0 23.536 11.325 50.143 11.87 50.689 13.372 29.676 3.07 65.494-23.741 83.913L739.738 887.769a80.775 80.775 0 0 1-30.429 6.206c-21.149 0-41.82-8.186-55.26-22.513-14.873-15.349-65.972-58.876-105.745-58.876-39.568-0.068-91.213 44.481-106.222 59.831a75.727 75.727 0 0 1-83.573 17.944L216.606 812.996c-28.312-19.443-38.614-55.26-25.242-84.936 0-0.547 11.871-26.608 11.871-50.69a133.102 133.102 0 0 0-133.58-132.624h-5.663c-25.242 0-45.913-21.491-52.667-55.26C10.915 487.438 0 429.108 0 383.535c0-45.572 10.848-103.425 11.325-106.018 6.208-33.224 26.88-55.26 52.667-55.26h5.663c73.749 0 133.58-59.354 133.58-132.555 0-23.605-11.325-50.212-11.871-50.69-13.372-29.677-3.07-65.493 23.742-83.914l134.67-74.771c10.234-4.64 20.126-6.14 29.882-6.14 21.15 0 41.82 8.664 55.738 22.99 19.102 20.467 70.133 62.492 107.791 62.492 40.798 0 93.396-47.074 108.884-63.447a76.205 76.205 0 0 1 83.572-17.942l139.242 76.272c28.38 19.444 38.205 55.806 25.243 84.937 0 0.546-11.803 27.153-11.803 50.69 0 73.202 59.83 132.624 133.58 132.624h5.662c25.242 0 45.914 21.49 52.668 55.26 0 0.478 11.324 59.354 11.324 105.95 0 45.027-10.847 103.425-11.324 105.472-6.209 33.293-26.879 55.26-52.668 55.26zM549.191 141.96a238.847 238.847 0 0 0-238.78 238.78c0 131.804 106.974 238.777 238.78 238.777S787.97 512.545 787.97 380.74 680.997 141.96 549.19 141.96z"  horiz-adv-x="1092" />

    
    <glyph glyph-name="APM-yewufenxi" unicode="&#58889;" d="M922.943 794.965A345.042 345.042 0 0 1 385.91 368.981c-3.413-2.048-59.778-57.571-59.778-57.571a59.301 59.301 0 0 1-61.964-12.516L16.84 51.77a57.435 57.435 0 0 1 0-81.237l81.693-81.693a57.276 57.276 0 0 1 81.123 0l247.33 247.353a57.23 57.23 0 0 1 12.584 62.123s55.41 56.206 57.594 59.392a345.065 345.065 0 0 1 425.802 537.258zM416.882 310.272l21.344-21.39-41.415-41.415-21.367 21.39z m450.036 52.793a265.899 265.899 0 1 0 77.824 187.96 264.51 264.51 0 0 0-77.824-187.96z m10.104-10.013"  horiz-adv-x="1024" />

    
    <glyph glyph-name="index" unicode="&#58890;" d="M562.805 815.302a72.135 72.135 0 0 1-96.93 0L73.925 443.13a36.157 36.157 0 0 1 48.42-53.707l6.233 5.917V6.9a72.315 72.315 0 0 1 72.315-72.405h210.442v217.71a50.918 50.918 0 0 0 50.94 50.985h99.023a50.918 50.918 0 0 0 50.94-50.985v-217.71h215.437a72.315 72.315 0 0 1 72.338 72.405V390.592c16.064-14.535 38.857-13.432 52.222 1.463a36.157 36.157 0 0 1-2.61 51.075L562.805 815.28z"  horiz-adv-x="1024" />

    
    <glyph glyph-name="changjingguanli" unicode="&#58891;" d="M417.6 776H159c-26 0-47.2-21.2-47.2-47.2v-258.6c0-26 21.2-47.2 47.2-47.2h258.6c26 0 47.2 21.2 47.2 47.2V728.8c0 26-21.2 47.2-47.2 47.2z m0-448.1H159c-26 0-47.2-21.2-47.2-47.2v-258.6c0-26 21.2-47.2 47.2-47.2h258.6c26 0 47.2 21.2 47.2 47.2V280.7c0 26-21.2 47.2-47.2 47.2zM870 776H611.4c-26 0-47.2-21.2-47.2-47.2v-258.6c0-26 21.2-47.2 47.2-47.2H870c26 0 47.2 21.2 47.2 47.2V728.8c0 26-21.3 47.2-47.2 47.2z m8.5-460.8H602.9c-21.3 0-38.7-17.4-38.7-38.7 0-21.3 17.4-38.7 38.7-38.7h275.6c21.3 0 38.7 17.4 38.7 38.7 0 21.3-17.5 38.7-38.7 38.7z m0-131.4H602.9c-21.3 0-38.7-17.4-38.7-38.7 0-21.3 17.4-38.7 38.7-38.7h275.6c21.3 0 38.7 17.4 38.7 38.7 0 21.3-17.5 38.7-38.7 38.7z m0-131.5H602.9c-21.3 0-38.7-17.4-38.7-38.7 0-21.3 17.4-38.7 38.7-38.7h275.6c21.3 0 38.7 17.4 38.7 38.7 0 21.3-17.5 38.7-38.7 38.7z"  horiz-adv-x="1024" />

    
    <glyph glyph-name="shouye" unicode="&#58892;" d="M390.328-23.04H239.053c-59.93 0-108.682 48.753-108.682 108.687v151.27c0 59.93 48.752 108.688 108.682 108.688h151.275c59.93 0 108.683-48.753 108.683-108.687v-151.27c0-59.935-48.753-108.688-108.683-108.688z m-151.275 332.8c-40.167 0-72.842-32.681-72.842-72.847v-151.27c0-40.167 32.675-72.848 72.842-72.848h151.275c40.167 0 72.843 32.68 72.843 72.847v151.27c0 40.167-32.676 72.848-72.843 72.848H239.053z m151.275 110.08H239.053c-59.93 0-108.682 48.753-108.682 108.682V679.798c0 59.93 48.757 108.682 108.682 108.682h151.275c59.93 0 108.683-48.753 108.683-108.682v-151.276c0-59.93-48.753-108.682-108.683-108.682z m-151.275 332.8c-40.167 0-72.842-32.676-72.842-72.842v-151.276c0-40.166 32.68-72.842 72.842-72.842h151.275c40.167 0 72.843 32.676 72.843 72.842V679.798c0 40.166-32.676 72.842-72.843 72.842H239.053zM793.6 419.84H642.324c-59.924 0-108.682 48.753-108.682 108.682V679.798c0 59.93 48.753 108.682 108.682 108.682H793.6c59.93 0 108.687-48.753 108.687-108.682v-151.276c0-59.93-48.757-108.682-108.687-108.682z m-151.276 332.8c-40.166 0-72.842-32.676-72.842-72.842v-151.276c0-40.166 32.676-72.842 72.842-72.842H793.6c40.166 0 72.847 32.676 72.847 72.842V679.798c0 40.166-32.68 72.842-72.847 72.842H642.324z m242.038-666.998c0-50.125-40.637-90.762-90.762-90.762H642.324c-50.124 0-90.762 40.637-90.762 90.762V236.918c0 50.125 40.638 90.762 90.762 90.762H793.6c50.125 0 90.762-40.637 90.762-90.762v-151.276z"  horiz-adv-x="1024" />

    
    <glyph glyph-name="yonghuguanli" unicode="&#58893;" d="M894.335 145.042c0 13.375-1.712 26.347-4.918 38.716l48.456 28.054-40.543 70.419-49.342-28.06c-18.42 18.25-42.93 31.841-68.029 38.876v54.511h-80.874v-54.61c-25.098-7.082-47.8-20.678-66.153-38.91l-48.314 28.194-40.35-70.419 48.87-28.238c-3.177-12.314-4.82-25.225-4.82-38.532 0-13.413 1.745-26.424 4.971-38.825l-48.841-28.284 40.55-70.42 48.151 28.32c18.317-18.123 40.839-31.642 65.938-38.696v-57.874h80.875v57.774c25.098 7.008 49.427 20.521 67.81 38.664l49.121-28.187 40.762 70.42-48.425 28.099c3.254 12.456 5.105 25.528 5.105 39.008z m-152.986-86.87c-47.844 0-86.629 38.893-86.629 86.87 0 47.977 38.785 86.87 86.63 86.87s86.628-38.893 86.628-86.87c-0.001-47.976-38.785-86.87-86.629-86.87zM519.624 317.112l27.93 48.688 48.433-28.213 15.45-9.1c4.98 3.206 10.957 6.2 15.14 8.968v18.609c-27.41 16.98-56.822 29.564-87.79 36.966 79.41 26.855 136.593 102.148 136.593 190.838 0 111.203-89.896 201.35-200.79 201.35s-200.792-90.147-200.792-201.35c0-88.421 56.838-163.524 135.872-190.588-136.33-31.886-242.777-163.598-264.335-329.068-0.145-4.327-0.53-9.131-1.215-14.483-4.84-37.86 19.216-46.063 34.381-47.541h332.45l-31.539 54.77-27.888 48.436 48.298 27.968 16.2 9.381a210.137 210.137 0 0 0-0.206 9.293c0 2.972 0.061 5.942 0.184 8.902l-16.282 9.413-48.276 27.908 27.786 48.438 40.396 70.415z"  horiz-adv-x="1024" />

    
    <glyph glyph-name="bianji" unicode="&#58894;" d="M85.333 179.2L0-128l307.2 85.333 486.4 486.4L571.733 665.6l-486.4-486.4z m665.6 674.133L631.467 733.867 861.867 512l119.466 119.467c59.734 59.733 59.734 162.133 0 221.866-68.266 59.734-162.133 59.734-230.4 0z"  horiz-adv-x="1026" />

    
    <glyph glyph-name="baowenshengchengguanli" unicode="&#58895;" d="M603 177.09c0 3.182 0.083 6.344 0.22 9.491H224.379V720.773h575.252V391.3c6.057 0.513 12.18 0.789 18.369 0.789 22.234 0 43.68-3.376 63.854-9.642V720.773c0 45.406-36.815 82.227-82.223 82.227H224.379c-45.408 0-82.233-36.82-82.233-82.227v-492.906c-45.407 0-82.228-36.82-82.228-82.229v-82.231c0-45.407 36.821-82.228 82.228-82.228h587.168C654.818 14.955 603 89.971 603 177.09zM347.539 309.978h301.438a216.001 216.001 0 0 0 65.631 55.654c-5.877 15.477-20.826 26.459-38.388 26.459H347.539c-22.701 0-41.049-18.471-41.049-41.054 0-22.706 18.348-41.059 41.049-41.059z m0 205.401H676.22c22.589 0 41.061 18.349 41.061 41.051 0 22.706-18.354 41.059-41.061 41.059H347.539c-22.701 0-41.049-18.353-41.049-41.059 0-22.702 18.348-41.051 41.049-41.051zM991.244 179.362c0-95.365-77.307-172.675-172.673-172.675-95.37 0-172.677 77.31-172.677 172.675 0 95.366 77.307 172.677 172.677 172.677 95.367 0 172.673-77.31 172.673-172.677z m-46.404-2.723v6.204c0 17.531-31.6 22.277-33.582 22.557-2.135 7.753-5.247 15.101-9.146 21.94 4.44 5.971 19.737 28.306 8.709 39.339l-5.658 5.973c-9.43 9.424-33.508-5.295-39.355-9.105-6.912 3.914-14.341 7.029-22.19 9.154-1.257 7.479-6.75 33.639-22.267 33.639h-6.209c-13.316 0-20.964-27.05-22.669-33.827-7.743-2.161-15.068-5.285-21.888-9.195-5.38 4.002-28.448 19.944-39.707 8.686l-5.968-5.021c-9.812-9.816 6.494-35.688 9.466-40.215-3.772-6.735-6.791-13.941-8.877-21.547-6.507-1.036-34.277-6.401-34.277-22.376v-6.204c0-13.845 29.124-21.535 34.44-22.825 2.112-7.547 5.151-14.696 8.932-21.372-3.132-4.914-18.799-30.673-9.074-40.401l5.656-4.705c12.79-12.795 39.525 8.223 39.525 8.223l-1.248 1.323a96.263 96.263 0 0 1 22.876-9.79c1.334-5.455 9.02-34.381 22.812-34.381h6.209c18.097 0 22.58 33.763 22.58 33.763l-1.656 0.052a96.201 96.201 0 0 1 23.182 9.292c5.648-3.762 29.333-18.581 38.781-9.13l6.297 6.292c12.61 12.615-7.915 38.43-8.495 39.144 3.906 6.823 7.03 14.155 9.181 21.895 7.057 1.786 33.62 9.407 33.62 22.618z m-55.442 2.847c0-39.398-31.932-71.337-71.336-71.337-39.392 0-71.334 31.938-71.334 71.337s31.942 71.335 71.334 71.335c39.405 0 71.336-31.935 71.336-71.335z m-23.781 0c0 26.266-21.284 47.56-47.555 47.56-26.268 0-47.553-21.294-47.553-47.56 0-26.263 21.285-47.555 47.553-47.555 26.271 0.001 47.555 21.293 47.555 47.555z m0 0"  horiz-adv-x="1024" />

    
    <glyph glyph-name="fx" unicode="&#58986;" d="M796.672-98.304H202.24c-100.352 0-177.664 77.312-177.664 177.664V681.472c0 100.352 77.312 177.664 177.664 177.664h594.432c100.352 0 177.664-77.312 177.664-177.664 0-30.72-15.36-38.4-46.08-38.4s-46.08 15.36-46.08 38.4c0 46.08-38.4 84.992-84.992 84.992H202.24c-46.08 0-84.992-38.4-84.992-84.992v-602.112c0-46.08 38.4-84.992 84.992-84.992h594.432c46.08 0 84.992 38.4 84.992 84.992 0 23.04 23.04 46.08 46.08 46.08s46.08-23.04 46.08-46.08c0.512-92.672-76.8-177.664-177.152-177.664z m-46.592 339.456c-7.68 0-23.04 0-30.72 7.68l-146.432 162.304c-15.36 15.36-15.36 38.4 0 54.272 15.36 15.36 38.4 15.36 54.272 0l146.432-162.304c15.36-15.36 15.36-38.4 0-54.272 0-7.68-7.68-7.68-23.552-7.68z m-169.472-15.36c-7.68 0-15.36 0-23.04 7.68-15.36 15.36-15.36 30.72 0 46.08l200.704 208.384c15.36 15.36 30.72 15.36 46.08 0s15.36-30.72 0-46.08l-200.704-208.384c-7.68-7.68-15.36-7.68-23.04-7.68z m-54.272 455.68c15.36 0 54.272-7.68 54.272-46.08 0-30.72-46.08-23.04-61.952-23.04-69.632 0-92.672-38.4-100.352-69.632l-15.36-92.672h77.312c15.36 0 30.72-15.36 30.72-30.72s-15.36-30.72-30.72-30.72H395.264L340.992 148.48s-7.68-69.632-54.272-69.632c-46.08 0-23.04 69.632-23.04 69.632l54.272 231.424H248.832c-15.36 0-30.72 15.36-30.72 30.72 0 30.72 15.36 38.4 30.72 38.4h84.992l23.04 100.352c15.36 132.096 131.072 139.776 169.472 132.096z m393.728-139.264c7.68 23.04 23.04 30.72 46.08 30.72 23.04-7.68 30.72-23.04 30.72-46.08l-77.312-308.736c-7.68-23.04-23.04-30.72-46.08-30.72-23.04 7.68-30.72 23.04-30.72 46.08l77.312 308.736z m0 0"  horiz-adv-x="1024" />

    
    <glyph glyph-name="xiaoxi" unicode="&#58896;" d="M840.656 703.881c30.637 0 55.523-24.938 55.523-55.562v-391.25c0-30.561-24.885-55.374-55.523-55.374h-136.68c-35.39 0-64.026-28.626-64.026-63.938v-15.249c-39.891 32.375-79.783 64.811-79.783 64.811-11.38 9.314-25.635 14.376-40.392 14.376H183.327c-30.575 0-55.46 24.813-55.46 55.374V648.32c0 30.625 24.885 55.562 55.46 55.562h657.329m0 64.001H183.328c-65.964 0-119.486-53.562-119.486-119.562v-391.25c0-65.875 53.522-119.375 119.486-119.375h336.448s139.182-113.25 158.065-128c8.878-6.875 15.256-9.812 19.508-9.812 4.753 0 6.878 3.75 6.753 9.812-0.188 11.375-0.125 128-0.125 128h136.68c66.09 0 119.55 53.5 119.55 119.374V648.32c-0.003 66-53.462 119.563-119.551 119.563zM752.12 447.882c0-26.562-21.571-48-48.02-48-26.51 0-48.02 21.438-48.02 48 0 26.563 21.51 48 48.02 48 26.449 0 48.02-21.438 48.02-48zM560.042 447.882c0-26.562-21.57-48-48.018-48-26.543 0-48.02 21.438-48.02 48 0 26.563 21.477 48 48.02 48 26.446 0 48.018-21.438 48.018-48zM367.965 447.882c0-26.562-21.572-48-48.02-48-26.542 0-48.019 21.438-48.019 48 0 26.563 21.477 48 48.019 48 26.448 0 48.02-21.438 48.02-48z"  horiz-adv-x="1025" />

    
    <glyph glyph-name="gengduo" unicode="&#58897;" d="M1080.416 313.647L608.542 105.03c-45.179-19.34-63.161-19.34-104.863 0L31.805 313.647C6.76 326.713 0 375.132 0 401.57c31.5-17.705 75.793-37.424 74.15-36.421l481.962-218.52 481.96 218.52c0.843 0.187 43.799 21.488 74.15 36.42-0.003-27.046-8.532-77.258-31.806-87.922z m0 218.52L608.542 323.544c-45.179-19.332-63.161-19.332-104.863 0L31.805 532.166c-37.066 19.344-35.91 80.258 0 103.012L503.679 880.211c41.702 20.48 67.795 21.615 104.863 0l471.874-245.033c35.907-19.344 34.748-87.085 0-103.012zM556.112 838.616L74.149 583.67l481.963-199.743 481.96 199.743-481.96 254.945z m0-910.514l481.96 218.526c0.843 0.187 43.799 21.488 74.15 36.419 0-27.05-8.532-77.26-31.806-87.93L608.542-113.49c-45.179-19.346-63.161-19.346-104.863 0L31.805 95.118C6.76 108.19 0 156.606 0 183.045c31.5-17.71 75.793-37.424 74.15-36.418l481.962-218.524z"  horiz-adv-x="1113" />

    
    <glyph glyph-name="biaozhu" unicode="&#58898;" d="M256 352v-224h64v-128H128V128h64V768h64v-32c81.152-42.688 178.56-42.688 292.224 0 113.728 42.688 229.632 42.688 347.776 0v-384c-134.208 42.688-250.048 42.688-347.52 0-97.408-42.688-194.944-42.688-292.48 0z"  horiz-adv-x="1024" />

    
    <glyph glyph-name="fenzu" unicode="&#58899;" d="M83.968-114.924c-39.936 0-71.916 34.028-71.916 76.485V536.576c0 42.535 31.98 76.485 71.916 76.485H686.08c39.936 0 71.916-34.028 71.916-76.485v-575.015c0-42.457-31.98-76.485-71.916-76.485H83.968z m0 677.336c-13.312 0-24.34-11.815-24.34-25.836v-583.444h1.576c3.072-10.003 11.815-17.329 22.528-17.329H686.08c13.312 0 24.26 11.737 24.26 25.758V536.576c0 14.02-11.027 25.836-24.26 25.836H83.968z m753.664-464.896V672.532c0 14.02-11.028 25.836-24.418 25.836H274.432a24.418 24.418 0 0 0-23.63 25.049c0 13.312 10.24 25.127 23.63 25.127h538.073c39.936 0 71.916-34.107 71.916-76.564V96.73c0-13.312-10.24-25.049-23.552-25.049s-23.237 10.713-23.237 25.836z m127.449 134.932V807.385c0 14.1-11.028 25.836-24.34 25.836H401.959a24.418 24.418 0 0 0-23.63 25.127c0 13.312 10.24 25.049 23.63 25.049h537.994c39.936 0 71.995-34.028 71.995-76.564v-574.858c0-13.312-10.24-25.048-23.63-25.048a23.788 23.788 0 0 0-23.237 25.6zM0-38.44V536.577c0 49.388 37.652 89.56 83.968 89.56H686.08c46.316 0 83.968-40.172 83.968-89.56v-575.015c0-49.389-37.652-89.561-83.968-89.561H83.968C37.652-128 0-87.828 0-38.44zM83.968 600.3c-33.083 0-59.628-28.672-59.628-63.803v-574.936c0-35.053 26.86-63.725 59.628-63.725H686.08c33.004 0 59.628 28.672 59.628 63.803V536.497c0 35.053-26.86 63.725-59.628 63.725H83.968zM53.721-59.628h-6.144V536.576c0 21.268 16.384 38.597 36.391 38.597H686.08c19.929 0 36.313-17.33 36.313-38.597v-575.015c0-21.268-16.384-38.597-36.313-38.597H83.968a35.682 35.682 0 0 0-30.247 17.329z m30.247 609.2c-6.695 0-12.052-5.828-12.052-12.996V-39.7l1.024-3.072c1.26-4.096 4.884-8.664 11.264-8.664h601.797c6.696 0 12.052 5.829 12.052 12.997V536.576c0 6.853-5.593 12.997-11.973 12.997H83.968zM825.58 97.517V672.532c0 6.853-5.671 12.997-12.051 12.997H274.432c-19.692 0-35.604 16.935-35.604 37.888 0 21.031 15.912 37.888 35.604 37.888h538.073c46.316 0 83.968-40.173 83.968-89.561v-575.015c0-20.953-15.833-37.81-35.604-37.81-19.929 0-35.289 16.542-35.289 38.597zM274.432 735.311c-6.932 0-11.264-6.46-11.264-12.052 0-7.404 5.908-12.052 11.264-12.052h538.782c20.007 0 36.39-17.329 36.39-38.597v-575.015c0-7.64 4.648-13.076 11.265-13.076 6.932 0 11.264 6.46 11.264 12.052V671.586c0 35.053-26.86 63.725-59.628 63.725H274.432z m687.813-529.408a37.258 37.258 0 0 0-9.452 27.096V807.385c0 6.931-5.672 13.075-12.052 13.075H401.959c-19.85-0.078-35.682 16.857-35.682 37.73 0 21.032 15.833 37.652 35.525 37.652h538.072C986.348 896 1024 855.828 1024 806.361v-575.016c0-20.952-15.833-37.809-35.525-37.809a36.549 36.549 0 0 0-26.151 12.288zM401.88 870.32c-6.853 0-11.264-6.301-11.264-11.973 0-7.483 5.907-12.051 11.264-12.051h538.86c20.007 0 36.391-17.408 36.391-38.597v-576.04a11.343 11.343 0 0 1 11.264-12.051c6.853 0 11.264 6.459 11.264 12.051V806.676c0 34.973-26.939 63.645-59.707 63.645H401.96z"  horiz-adv-x="1024" />

    
    <glyph glyph-name="dot_small" unicode="&#58988;" d="M512 896a512 512 0 1 1 512-512A512 512 0 0 1 512 896z m0-880.64a368.64 368.64 0 1 0 368.64 368.64 368.64 368.64 0 0 0-368.64-368.64zM512 384m-307.2 0a307.2 307.2 0 1 1 614.4 0 307.2 307.2 0 1 1-614.4 0Z"  horiz-adv-x="1024" />

    
    <glyph glyph-name="dot_big" unicode="&#58989;" d="M512 896a512 512 0 1 1 512-512A512 512 0 0 1 512 896z m0-942.08a430.08 430.08 0 1 0 430.08 430.08 430.08 430.08 0 0 0-430.08-430.08zM512 384m-307.2 0a307.2 307.2 0 1 1 614.4 0 307.2 307.2 0 1 1-614.4 0Z"  horiz-adv-x="1024" />

    
    <glyph glyph-name="yijianyichu_" unicode="&#58900;" d="M512 826.182C267.636 826.182 69.818 628.364 69.818 384S267.636-58.182 512-58.182 954.182 139.636 954.182 384 756.364 826.182 512 826.182z m0-837.818c-218.764 0-395.636 176.872-395.636 395.636S293.236 779.636 512 779.636 907.636 602.764 907.636 384 730.764-11.636 512-11.636zM721.455 407.273h-418.91c-13.963 0-23.272-11.637-23.272-23.273 0-13.964 11.636-23.273 23.272-23.273h418.91c13.963 0 23.272 9.31 23.272 23.273s-11.636 23.273-23.272 23.273z"  horiz-adv-x="1024" />

    
    <glyph glyph-name="buju-" unicode="&#58901;" d="M715.7 704H833v-115.1H715.7z m-173.2 0H657v-115.1H542.5z m-175.9 0h117.2v-115.1H366.6z m-174.1 0H308v-115.1H192.5z m523.2-173.1H833v-115.1H715.7z m-173.2 0H657v-115.1H542.5z m-175.9 0h117.2v-115.1H366.6z m-174.1 0H308v-115.1H192.5z m522.2-176.8H832V239H714.7z m-173.2 0H656V239H541.5z m-175.9 0h117.2V239H365.6z m-174.1 0H307V239H191.5z m523.2-174H832V65H714.7z m-173.2 0H656V65H541.5z m-175.9 0h117.2V65H365.6z m-174.1 0H307V65H191.5z"  horiz-adv-x="1024" />

    
    <glyph glyph-name="guanxi" unicode="&#58902;" d="M872.402-113.608c-59.133-31.605-131.01-9.176-162.614 47.917-23.96 44.35-16.823 99.914 14.783 135.087l-46.389 86.66c-23.958-7.137-47.917-11.215-73.915-11.215-114.697 0-209.002 81.052-227.354 188.612h-95.835c-16.822-46.389-61.171-79.523-112.657-79.523-66.27 0-120.304 53.525-120.304 120.304s53.525 120.303 120.304 120.303c51.486 0 95.835-31.605 112.657-77.483h97.874c20.39 105.52 114.697 183.004 227.354 183.004 18.351 0 36.703-2.039 53.525-5.607l38.742 92.267c-36.703 33.134-49.957 86.66-29.566 135.087 25.997 61.17 95.835 90.737 157.006 64.74s90.738-95.836 64.74-157.007c-20.39-47.918-66.27-75.955-114.696-73.916l-40.781-95.835c61.171-40.78 101.442-110.618 101.442-188.612 0-70.347-33.134-133.048-83.09-175.358l46.387-86.66c47.918 7.137 97.875-16.822 123.872-61.17 29.567-56.584 7.647-130.5-51.485-161.595z"  horiz-adv-x="1024" />

    
    <glyph glyph-name="liangliangduibi" unicode="&#58903;" d="M426.667 128H768V469.333h-42.667v-298.666H426.667V128z m0-85.333h-85.334v128h-128v512h512v-128h128v-512H426.667zM640 469.333H426.667V256H640V469.333z m0 85.334v42.666H298.667V256h42.666V554.667H640z"  horiz-adv-x="1024" />

    
    <glyph glyph-name="shaixuan" unicode="&#58904;" d="M576.34333-114.867c-21.195 0-38.323 17.132-38.323 38.328V498.33a38.219 38.219 0 0 0 9.887 25.68L797.97333 804.85H123.84033l250.57-281.035a38.375 38.375 0 0 0 9.693-25.523V152.45l60.9-49.285c16.478-13.342 19.01-37.444 5.673-53.889-13.337-16.44-37.444-18.972-53.887-5.673l-75.117 60.788c-9.004 7.24-14.216 18.24-14.216 29.775V483.73L9.71033 817.691C-0.33167 828.957-2.82167 845.093 3.35033 858.89c6.172 13.76 19.888 22.65 34.988 22.65h845.945c15.174 0 28.896-8.927 35.025-22.763 6.133-13.836 3.57-30.009-6.59-41.241l-298.051-333.92V-76.54c0-21.195-17.128-38.327-38.324-38.327z m0 0M991.59833 476.507c-0.34 0-0.676-0.018-1.013-0.026-0.17 0.006-0.336 0.026-0.508 0.026H733.43633c-0.206 0-0.405-0.024-0.608-0.03-0.405 0.011-0.81 0.03-1.217 0.03-21.496 0-38.922-17.427-38.922-38.922s17.426-38.922 38.922-38.922c0.408 0 0.812 0.018 1.217 0.03 0.203-0.008 0.402-0.03 0.608-0.03h256.641c0.172 0 0.337 0.02 0.508 0.025 0.336-0.008 0.673-0.025 1.013-0.025 21.496 0 38.922 17.426 38.922 38.922s-17.426 38.922-38.922 38.922zM991.59833 273.39c-0.34 0-0.676-0.017-1.013-0.026-0.17 0.006-0.336 0.026-0.508 0.026H733.43633c-0.206 0-0.405-0.023-0.608-0.03-0.405 0.013-0.81 0.03-1.217 0.03-21.496 0-38.922-17.425-38.922-38.922 0-21.496 17.426-38.922 38.922-38.922 0.408 0 0.812 0.018 1.217 0.03 0.203-0.008 0.402-0.03 0.608-0.03h256.641c0.172 0 0.337 0.02 0.508 0.026 0.336-0.01 0.673-0.026 1.013-0.026 21.496 0 38.922 17.426 38.922 38.922 0 21.497-17.426 38.922-38.922 38.922zM991.59833 70.274c-0.34 0-0.676-0.017-1.013-0.025-0.17 0.006-0.336 0.025-0.508 0.025H733.43633c-0.206 0-0.405-0.023-0.608-0.03-0.405 0.013-0.81 0.03-1.217 0.03-21.496 0-38.922-17.424-38.922-38.921 0-21.496 17.426-38.922 38.922-38.922 0.408 0 0.812 0.018 1.217 0.03 0.203-0.009 0.402-0.03 0.608-0.03h256.641c0.172 0 0.337 0.02 0.508 0.025 0.336-0.01 0.673-0.025 1.013-0.025 21.496 0 38.922 17.426 38.922 38.922 0 21.495-17.426 38.921-38.922 38.921z"  horiz-adv-x="1031" />

    
    <glyph glyph-name="shujuhebing" unicode="&#58905;" d="M459.512 732.439c0-15.799-12.756-28.626-28.554-28.626l-271.9-0.132a28.564 28.564 0 0 0-20.217 8.38 28.563 28.563 0 0 0-8.363 20.22c0 15.824 12.777 28.626 28.558 28.626l271.875 0.112a28.554 28.554 0 0 0 28.6-28.58z m0-700.238c0-15.756-12.756-28.58-28.554-28.58l-271.9-0.135c-15.787 0-28.58 12.797-28.58 28.579 0 15.87 12.777 28.694 28.558 28.694l271.875 0.132a28.64 28.64 0 0 0 28.6-28.69zM63.335 382.856c0 15.803 12.733 28.604 28.58 28.626l228.953 0.09c15.492-0.426 27.828-13.104 27.837-28.605 0.004-15.494-12.325-28.181-27.815-28.62l-228.953-0.112a28.574 28.574 0 0 0-28.602 28.62z m0 0M219.148 502.414a28.409 28.409 0 0 0 20.195 8.444 28.393 28.393 0 0 0 20.2-8.422l101.319-101.113c11.18-11.175 11.183-29.296 0.009-40.476-11.171-11.18-29.292-11.184-40.473-0.014L219.171 461.994a28.427 28.427 0 0 0-0.023 40.42z m216.485-499.262a28.637 28.637 0 0 0-20.247 8.388 28.609 28.609 0 0 0-8.375 20.255l-0.337 701.091c0 15.799 12.823 28.6 28.6 28.6 15.845 0 28.674-12.755 28.674-28.558l0.332-701.108a28.616 28.616 0 0 0-28.647-28.668z m0 0M361.04 400.784a28.525 28.525 0 0 1-40.398-0.021L219.417 299.555c-10.492-11.296-10.164-28.87 0.743-39.763 10.907-10.894 28.48-11.205 39.764-0.7l101.16 101.228c11.192 11.167 11.192 29.271-0.043 40.464z m200.28-368.54c0 15.867 12.781 28.604 28.627 28.604l271.832 0.132a28.501 28.501 0 0 0 28.58-28.579 28.504 28.504 0 0 0-28.56-28.6l-271.831-0.136a28.563 28.563 0 0 0-20.25 8.349 28.579 28.579 0 0 0-8.398 20.23z m-0.31 700.216a28.597 28.597 0 0 0 8.362 20.256 28.597 28.597 0 0 0 20.239 8.393l271.832 0.11c15.823 0 28.583-12.801 28.604-28.6 0-15.823-12.76-28.626-28.58-28.626l-271.81-0.132a28.53 28.53 0 0 0-20.268 8.35 28.543 28.543 0 0 0-8.38 20.25z m397.54-350.634c0-15.798-12.69-28.599-28.558-28.599l-228.905-0.115c-15.492 0.422-27.837 13.096-27.846 28.592-0.013 15.5 12.312 28.19 27.804 28.634l228.905 0.09a28.52 28.52 0 0 0 20.243-8.353 28.537 28.537 0 0 0 8.357-20.249z m0 0M802.807 262.226c-11.147-11.168-29.249-11.188-40.442-0.02L661.072 363.337c-11.154 11.185-11.154 29.284 0 40.47 11.215 11.187 29.319 11.187 40.507 0.042l101.207-101.14c11.21-11.21 11.21-29.293 0.021-40.484z m-213.061 499.33c15.785-0.038 28.566-12.84 28.579-28.627l0.31-701.134c0.014-15.773-12.758-28.575-28.531-28.6-15.812-0.013-28.652 12.768-28.715 28.579l-0.311 701.135a28.627 28.627 0 0 0 8.396 20.263 28.653 28.653 0 0 0 20.272 8.384z m0 0M660.892 363.877c11.189-11.147 29.275-11.147 40.422 0.025l101.181 101.246a28.569 28.569 0 0 1 8.357 20.203 28.566 28.566 0 0 1-8.383 20.195 28.552 28.552 0 0 1-40.463 0.065L660.845 404.365c-11.188-11.192-11.188-29.295 0.047-40.488z m0 0"  horiz-adv-x="1024" />

    
    <glyph glyph-name="tongjifenxi" unicode="&#58906;" d="M814.765 695.404c58.331 0.15 107.41-44.778 112.073-102.595 4.733-58.676-35.994-109.92-94.686-119.62-13.5-2.233-26.83-1.952-39.967 1.06-5.168 1.186-7.12-0.344-9.4-4.288-41.224-71.36-82.417-142.738-124.035-213.868-4.304-7.356 0.98-8.477 4.555-11.313 28.588-22.681 41.845-52.385 37.132-88.424-4.929-37.679-26.245-64.05-61.883-77.622-38.085-14.503-80.629-2.654-106.494 28.617-25.993 31.426-29.55 74.772-8.444 109.862 3.595 5.979 3.711 8.577-2.367 13.071-58.27 43.084-116.26 86.547-174.17 130.113-4.852 3.65-8.471 4.414-14.196 1.665-13.243-6.355-27.602-8.804-42.144-6.65-6.302 0.935-8.893-1.134-11.698-6.039-17.296-30.242-34.72-60.414-52.438-90.41-3.289-5.57-3.432-8.887 0.933-14.515 19.536-25.186 22.014-52.697 7.313-81.02-13.508-26.023-43.276-41.755-72.22-37.88-31.022 4.152-52.531 21.215-62.25 51.261-16.955 52.41 28.735 104.044 83.006 93.973 6.109-1.133 8.905 0.589 11.794 5.667 16.399 28.826 32.932 57.58 49.898 86.075 3.685 6.189 3.61 9.411-2.082 14.578-26.868 24.387-34.61 62.104-20.337 94.788 14.215 32.551 47.297 52.41 83.314 50.008 34.186-2.28 63.985-26.686 73.725-60.553 6.553-22.786 3.732-44.593-8.293-64.895-3.172-5.356-2.266-7.7 2.346-11.129 58.698-43.634 117.285-87.417 175.805-131.29 3.86-2.893 6.685-3.867 11.407-1.209 16.202 9.12 33.905 12.715 52.35 10.884 6.59-0.654 9.295 1.766 12.324 7.025 40.634 70.54 81.432 140.986 122.487 211.28 3.68 6.302 3.844 9.412-2.438 14.313-37.376 29.161-51.61 79.043-36.098 123.97 15.386 44.567 57.986 74.99 105.178 75.11z"  horiz-adv-x="1024" />

    
    <glyph glyph-name="tongjifenxi1" unicode="&#58908;" d="M513.596 258.469v-183.748c0-3.237 1.235-6.471 3.704-8.94a12.608 12.608 0 0 1 8.938-3.702h92.934c3.237 0 6.471 1.235 8.94 3.702a12.612 12.612 0 0 1 3.702 8.94v244.87l-94.491-81.343-23.727 20.221z m-397.13-183.748c0-3.237 1.233-6.472 3.703-8.94a12.606 12.606 0 0 1 8.94-3.703h92.92c3.237 0 6.471 1.235 8.938 3.703a12.594 12.594 0 0 1 3.704 8.94V262.168l-118.205-97.505v-89.942z m198.542 253.744v-253.743c0-3.237 1.234-6.471 3.704-8.94a12.6 12.6 0 0 1 8.938-3.703h92.945c3.237 0 6.472 1.235 8.94 3.703s3.703 5.705 3.703 8.94V326.88l-59.08 50.305-59.15-48.72z m397.154-253.744c0-3.237 1.233-6.472 3.703-8.94a12.604 12.604 0 0 1 8.939-3.703h92.971c3.237 0 6.472 1.235 8.94 3.703a12.607 12.607 0 0 1 3.703 8.94V490.59L712.162 388.766V74.72zM691.77 705.923a4.212 4.212 0 0 1-2.954-7.217l88.846-87.361L537.32 404.4 374.159 543.38l-258.37-213.136v-92.066l258.37 213.125 163.16-138.956 290.316 249.917 73.408-72.194a4.213 4.213 0 0 1 7.168 3.004V701.71a4.2 4.2 0 0 1-1.235 2.98 4.202 4.202 0 0 1-2.98 1.234H691.77z"  horiz-adv-x="1024" />

    
    <glyph glyph-name="zuoyoubuju" unicode="&#58909;" d="M102.4 793.6h307.2v-819.2H102.4zM614.4 793.6h307.2v-819.2H614.4zM460.8 896h102.4v-1024H460.8z"  horiz-adv-x="1024" />

    
    <glyph glyph-name="yanlun" unicode="&#58910;" d="M729.53 146.695H259.863c-32.96 0-60.974 28.015-60.974 60.974V619.657c0 32.959 28.015 60.974 60.974 60.974h504.272c32.96 0 60.974-28.015 60.974-60.974v-535.584l-95.58 62.622z m-393.86 321.35c-29.664 0-52.735-23.07-52.735-52.734 0-29.663 23.071-52.734 52.734-52.734 29.664 0 52.735 23.07 52.735 52.734 0 28.015-24.72 52.734-52.735 52.734z m169.738 0c-29.663 0-52.734-23.07-52.734-52.734 0-29.663 23.071-52.734 52.734-52.734s52.735 23.07 52.735 52.734c1.648 28.015-23.072 52.734-52.735 52.734z m166.443 0c-29.663 0-52.734-23.07-52.734-52.734 0-29.663 23.071-52.734 52.734-52.734s52.734 23.07 52.734 52.734c1.648 28.015-23.07 52.734-52.734 52.734z"  horiz-adv-x="1024" />

    
    <glyph glyph-name="xianshi1" unicode="&#58911;" d="M782.629 596.114c-80.458 51.2-175.543 80.457-270.629 80.457s-190.171-29.257-270.629-80.457S109.714 471.771 73.143 384c36.571-87.771 95.086-160.914 168.228-212.114S416.914 91.429 512 91.429s190.171 29.257 270.629 80.457S914.286 296.229 950.857 384c-36.571 87.771-95.086 160.914-168.228 212.114zM650.97 245.03C614.4 208.457 563.2 186.514 512 186.514s-102.4 21.943-138.971 58.515C329.143 281.6 314.514 332.8 314.514 384A199.826 199.826 0 0 0 512 581.486c51.2 0 102.4-21.943 138.971-58.515C694.857 486.4 709.486 435.2 709.486 384s-14.629-102.4-58.515-138.971zM512 501.029c-29.257 0-58.514-14.629-80.457-36.572S394.97 413.257 394.97 384s14.629-58.514 36.572-80.457 51.2-36.572 80.457-36.572 58.514 14.629 80.457 36.572 36.572 51.2 36.572 80.457-7.315 58.514-36.572 80.457-51.2 36.572-80.457 36.572z"  horiz-adv-x="1024" />

    
    <glyph glyph-name="kaoheweidufenxi" unicode="&#58912;" d="M815.543 683.057l118.296-68.267v-168.033L732.306 330.41l-0.487 163.352-125.367 72.46 209.09 116.834z m-89.673 51.736L519.314 616.546l-213.528 123.22L511.56 858.552 725.87 734.793z m-431.25-726.26L89.233 127.123V349.866l205.678-118.004-0.293-223.33z m85.333-49.25l-0.098 223.915 133.608-76.653 132.632 76.605-1.024-222.745-133.559-77.043-131.51 75.922z m54.516 608.696l-139.216-79.726-0.195-156.672-205.824 120.1v163.06l132.048 76.264L434.37 567.979z m86.113-49.737l126.781-73.192-0.78-164.084-133.12-76.897-133.657 78.019-0.097 157.403 140.922 78.75z m413.257-169.01v-222.11l-200.655-115.81-0.634 221.77 201.29 116.15z"  horiz-adv-x="1024" />

    
    <glyph glyph-name="shangxiabuju" unicode="&#58913;" d="M1152 896v-384H128V896zM1152 256v-384H128V256zM1280 448v-128H0V448z"  horiz-adv-x="1280" />

    
    <glyph glyph-name="kuangxuan" unicode="&#58914;" d="M629.3 448.2s-3.1 48.7 41.5 21.8L1014 126.8s25.9-25.9-9.3-35.3h-137l66.4-157.6s11.4-21.8-7.3-31.1l-63.3-28s-14.5-8.3-25.9 10.4l-65.3 153.5-106.8-106.8s-36.3-24.9-36.3 24.9l0.1 491.4zM362-31h150v-48H362z m-216 0h150v-48H146zM4-31h69v-48H4z m0 371h48v-150H4z m0 216h48v-150H4z m0 217h48v-150H4zM4 892h48v-61H4zM47 892h150v-48H47z m212.5 0h150v-48h-150zM479 892h150v-48H479z m216 0h150v-48H695z m189 0h60v-48h-60zM896 846h48v-150h-48z m0-216h48v-150h-48z m0-199h48v-84h-48zM4 120h48v-150H4z"  horiz-adv-x="1024" />

    
    <glyph glyph-name="tianjiajiankongduixiang" unicode="&#58915;" d="M527.205 351.92c-100.371 0-181.67 81.387-181.67 181.67 0 100.37 81.387 181.67 181.67 181.67 100.283 0.088 181.67-81.3 181.67-181.582 0-100.371-81.387-181.758-181.67-181.758z m0 310.518c-70.488 0-127.441-56.954-127.441-127.442s56.953-127.441 127.441-127.441 127.441 56.953 127.441 127.441c0 69.17-56.953 127.442-127.44 127.442z m0 0M228.904 52.3c-14.941 0-27.158 12.218-27.158 27.159 0 178.945 146.426 325.459 325.46 325.459 14.94 0 27.157-12.217 27.157-27.158s-12.304-27.158-27.158-27.158c-149.15 0-271.23-121.993-271.23-271.23 0-14.854-12.217-27.071-27.07-27.071z m0 0M794.305 174.293H585.477c-14.942 0-27.159 12.217-27.159 27.158s12.217 27.158 27.159 27.158h208.828c14.941 0 27.158-12.216 27.158-27.158-0.088-14.941-12.217-27.158-27.158-27.158z m0 0M689.89 69.967c-14.94 0-27.158 12.217-27.158 27.158v208.74c0 14.942 12.217 27.158 27.159 27.158s27.158-12.216 27.158-27.158v-208.828c-0.088-14.941-12.217-27.07-27.158-27.07z m0 0"  horiz-adv-x="1024" />

    
    <glyph glyph-name="zuoyoubuju1" unicode="&#58916;" d="M919.078602 635.863254c-0.388 13.962986-5.300995 25.599975-14.480985 34.908966-9.309991 9.308991-20.94498 14.221986-34.909966 14.479986H575.935938v-813.122206l293.753713-0.129c13.963986 0.388 25.729975 5.300995 34.908966 14.609986 9.309991 9.179991 14.221986 20.81598 14.479985 34.909966V635.862254z m-742.399275 49.389952c-20.29998-0.517999-37.236964-7.628993-50.68295-21.204979-13.575987-13.445987-20.55798-30.51297-21.074979-50.939951v-668.832347c0.516999-20.55798 7.499993-37.494963 21.074979-51.07095 13.445987-13.704987 30.38397-20.68698 50.68295-21.203979h341.849667V685.253206H176.680327z m-13.446986-58.569943c3.619996 3.619996 8.015992 5.559995 13.446986 5.688994h288.969718V-75.119052h-288.969718c-5.429995 0.13-9.82599 1.939998-13.446986 5.688995-3.489997 3.619996-5.299995 8.144992-5.429995 13.704986V612.978276c0.13 5.559995 1.939998 10.08499 5.429995 13.704987z"  horiz-adv-x="1024" />

    
    <glyph glyph-name="shangxiabuju1" unicode="&#58917;" d="M897.422 630.303c-13.446 13.446-30.513 20.428-50.941 20.945H177.648c-20.557-0.517-37.494-7.499-51.07-20.945-13.705-13.576-20.687-30.384-21.204-50.683v-341.85h813.252V579.62c-0.517 20.3-7.628 37.107-21.204 50.683z m-37.365-37.366c3.62-3.49 5.56-8.016 5.688-13.317v-289.099h-707.49v289.1c0.129 5.3 1.939 9.825 5.688 13.316 3.62 3.62 8.146 5.43 13.705 5.56h668.704c5.56-0.13 10.084-1.94 13.705-5.56z m-740.073-706.456c9.18-9.31 20.816-14.093 34.909-14.481h714.343c13.964 0.388 25.6 5.172 34.91 14.61 9.309 9.18 14.222 20.816 14.48 34.91V178.94H105.503l-0.13-257.422c0.389-14.093 5.302-25.73 14.61-35.038z"  horiz-adv-x="1024" />

    
    <glyph glyph-name="cedaohang-asotaolunqunzu" unicode="&#58918;" d="M795.625 313.716V751.127c0 47.314-38.773 85.784-86.389 85.784H109.661c-47.64 0.023-86.388-38.447-86.388-85.76v-609.304a23.296 23.296 0 0 1 38.167-17.896l125.021 103.982h522.775c47.616 0 86.389 38.47 86.389 85.76z m-617.589-39.26a23.293 23.293 0 0 1-14.894-5.4l-93.324-77.591V751.174c0 21.643 17.874 39.214 39.843 39.214h599.575c21.97 0 39.843-17.594 39.843-39.237v-437.435c0-21.643-17.873-39.214-39.843-39.214h-531.2zM181.062 511.604a39.052 38.889 0 1 1 78.103 0 39.052 38.889 0 1 1-78.103 0zM370.385 511.604a39.052 38.889 0 1 1 78.104 0 39.052 38.889 0 1 1-78.104 0zM559.732 511.604a39.052 38.889 0 1 1 78.104 0 39.052 38.889 0 1 1-78.104 0zM977.455 540.067H859.113a23.273 23.273 0 1 1 0-46.546h95.069v-497.547L837.12 67.91a23.087 23.087 0 0 1-12.172 3.444H338.036V180.876a23.273 23.273 0 1 1-46.545 0V48.08a23.273 23.273 0 0 1 23.273-23.272h503.621l146.898-90.298a23.226 23.226 0 0 1 35.444 19.851V516.794a23.273 23.273 0 0 1-23.272 23.273z"  horiz-adv-x="1024" />

    
    <glyph glyph-name="pizhuliebiao" unicode="&#58919;" d="M562.648-81.234H125.034C55.937-81.234 0-24.748 0 44.349V770.417C0 839.514 55.937 896 125.034 896H738.68c69.098 0 125.584-56.486 125.584-125.583v-499.59a32.909 32.909 0 0 0-65.804 0v499.59a59.913 59.913 0 0 1-59.78 59.766H125.034a59.913 59.913 0 0 1-59.779-59.766V43.8a59.913 59.913 0 0 1 59.78-59.766h437.613a33.002 33.002 0 0 0 32.896-32.908c-0.55-17.54-14.808-32.347-32.896-32.347z m0 0M613.645 576.833H250.618a32.909 32.909 0 1 0 0 65.805h363.027a33.002 33.002 0 0 0 32.895-32.91c-0.549-18.65-14.807-32.895-32.895-32.895z m0-181.52H250.618a32.909 32.909 0 1 0 0 65.804h363.027a33.002 33.002 0 0 0 32.909-32.895c-0.55-18.101-14.808-32.895-32.896-32.895zM403.058 214.355h-152.99a32.909 32.909 0 0 0 0 65.804h152.99a32.909 32.909 0 1 0 0-65.804z m417.33-333.371a33.284 33.284 0 0 0-23.027 9.372L534.13 153.478a32.721 32.721 0 0 0-9.372 26.87l8.77 76.77c1.646 15.356 13.71 26.87 29.066 29.066l76.823 8.288a32.132 32.132 0 0 0 26.87-9.372l263.23-263.23a32.775 32.775 0 0 0 0-46.07l-85.552-85.552a35.64 35.64 0 0 0-23.577-9.371zM591.716 188.583l229.223-228.688 39.482 39.482-229.223 229.224-35.09-3.843z m0 0"  horiz-adv-x="1396" />

    
    <glyph glyph-name="kaoheguanxi" unicode="&#58920;" d="M626.7 569.1h-328c-15.1 0-27.3-14.3-27.3-32s12.2-32 27.3-32h328.1c15.1 0 27.3 14.3 27.3 32s-12.3 32-27.4 32z m-62.7-158H299.9c-15.1 0-27.3-14.3-27.3-32s12.2-32 27.3-32H564c15.1 0 27.3 14.3 27.3 32 0 17.8-12.2 32-27.3 32zM771.5 785.2H656.6v15c-0.1 17.7-14.4 32-32.1 32H304.6c-17.7 0-32-14.3-32-32v-14.9H157.7c-33.2 0-60.1-26.9-60.1-60.1v-679.4c0-33.2 26.9-60.1 60.1-60.1h282c17.7 0 32 14.3 32 32s-14.3 32-32 32H161.6V721.2h111v-14.8c0-17.7 14.3-32 32-32h320c17.7 0 32 14.3 32 32v14.8h111v-316.8c0-17.7 14.3-32 32-32s32 14.3 32 32V725.1c0 33.2-26.9 60.1-60.1 60.1zM895.6 219.2c35.3 0 64 28.7 64 64s-28.7 64-64 64c-34.6 0-62.8-27.5-63.9-61.9l-54.8-12.6c-17 34-52.2 57.4-92.8 57.4-57.3 0-103.7-46.4-103.7-103.7 0-30.2 12.9-57.5 33.6-76.4l-21.7-53.9h-1.9c-35.3 0-64-28.7-64-64s28.7-64 64-64 64 28.7 64 64c0 17.6-7.1 33.5-18.5 45l19.9 49.4c9-2.6 18.5-3.9 28.4-3.9 14.3 0 27.9 2.9 40.3 8.1l85.3-97.1c-6.1-9.8-9.7-21.4-9.7-33.8 0-35.3 28.7-64 64-64s64 28.7 64 64-28.7 64-64 64c-5.5 0-10.8-0.7-15.9-2l-85.3 97c15.6 18.1 25 41.7 25 67.5v0.2l60.3 13.9c11.6-13.1 28.5-21.2 47.4-21.2z"  horiz-adv-x="1024" />

    
    <glyph glyph-name="lishijilu" unicode="&#58921;" d="M813.097211-128c-154.318241 0-279.791524 125.473283-279.791524 279.791524s125.473283 279.791524 279.791524 279.791524 279.791524-125.473283 279.791524-279.791524-125.6204-279.791524-279.791524-279.791524z m0 486.378206c-113.907665 0-206.586682-92.677028-206.586682-206.586682s92.677028-206.586682 206.586682-206.586682 206.586682 92.677028 206.586681 206.586682c-0.147117 113.907665-92.82514 206.586682-206.586681 206.586682zM683.671638 623.677668H260.542996c-20.204791 0-36.603415 16.398624-36.603415 36.603415s16.398624 36.603415 36.603415 36.603416h423.128642c20.204791 0 36.603415-16.398624 36.603415-36.603416s-16.398624-36.603415-36.603415-36.603415zM552.778867 429.095968H260.394885c-20.204791 0-36.603415 16.398624-36.603415 36.603415s16.398624 36.603415 36.603415 36.603416h292.236864c20.204791 0 36.603415-16.398624 36.603415-36.603416s-16.251507-36.603415-36.457291-36.603415zM399.632595 234.661386H260.394885c-20.204791 0-36.603415 16.398624-36.603415 36.603415s16.398624 36.603415 36.603415 36.603415H399.632595c20.204791 0 36.603415-16.398624 36.603415-36.603415s-16.251507-36.603415-36.603415-36.603415zM891.575418 86.784503H778.400358V234.952639c0 20.204791 16.398624 36.603415 36.603415 36.603415s36.603415-16.398624 36.603416-36.603415v-74.963294h39.970217c20.204791 0 36.603415-16.398624 36.603415-36.603415s-16.398624-36.603415-36.603415-36.603415z m-708.629912-96.631307c-9.664025 0-50.36486 1.90358-80.671053 31.332039-14.49405 14.056674-31.624285 39.678965-31.624285 81.990139V780.188754c-0.439364 9.515914-0.147117 51.098459 29.428458 82.722745 14.202797 15.079538 40.410576 33.088501 84.772448 33.088501l583.888241-0.291253c2.636185-0.291253 26.645155-3.366802 50.952336-17.276358 35.724687-20.351908 55.342996-54.173015 55.342996-95.313214v-342.456595c0-20.204791-16.398624-36.603415-36.603416-36.603415s-36.603415 16.398624-36.603415 36.603415V783.265298c0 14.347926-5.123265 23.571593-17.130235 30.89168-9.224661 5.56263-19.180933 7.906568-22.986106 8.63818H184.85008c-14.49405 0-24.888692-3.221673-31.185915-9.664026-8.638179-8.933408-10.101401-24.304199-9.956272-29.868816l0.147117-1.464216V103.766627c0-20.351908 7.173963-27.232631 9.515914-29.573588 10.54176-10.248519 28.841976-10.688877 29.281341-10.688877h344.945663c20.204791 0 36.603415-16.398624 36.603415-36.603415s-16.398624-36.603415-36.603415-36.603415H183.970358c-0.291253-0.147117-0.731611-0.147117-1.024852-0.147118z"  horiz-adv-x="1136" />

    
    <glyph glyph-name="lishijilu1" unicode="&#58922;" d="M689.027 459.217c0 14.016-11.356 25.327-25.323 25.327H211.291c-13.969 0-25.326-11.31-25.326-25.327s11.357-25.324 25.326-25.324h452.413c13.967-0.001 25.323 11.306 25.323 25.324zM495.018 292.386c0 14.017-11.36 25.326-25.327 25.326h-258.4c-13.969 0-25.326-11.309-25.326-25.326s11.357-25.327 25.326-25.327H469.69c13.97-0.001 25.329 11.308 25.329 25.327zM211.244 600.723h452.41c14.017 0 25.325 11.309 25.325 25.325 0 14.018-11.355 25.328-25.326 25.328H211.244c-13.97 0-25.325-11.31-25.325-25.328-0.001-14.015 11.354-25.325 25.325-25.325z m0.095-449.893c-13.97 0-25.326-11.307-25.326-25.323 0-14.018 11.355-25.327 25.326-25.327h179.328c13.97 0 25.327 11.31 25.327 25.327 0 14.016-11.358 25.323-25.327 25.323H211.339z m704.536-30.503c0 14.014-11.36 25.323-25.326 25.323H818.37V250.045c0 14.018-11.359 25.327-25.326 25.327-13.973 0-25.328-11.309-25.328-25.327v-155.094h122.833c13.967 0.001 25.326 11.358 25.326 25.376zM168.145-80.672h374.577c14.018 0 25.373 11.358 25.373 25.375s-11.355 25.323-25.324 25.323H168.145c-33.546 0-60.868 27.278-60.868 60.824V720.703c0 33.548 27.275 60.869 60.868 60.869h538.796c33.547 0 60.822-27.323 60.822-60.87v-261.487c0-14.016 11.358-25.323 25.326-25.323 13.97 0 25.325 11.307 25.325 25.323V720.703c0 61.488-50.035 111.57-111.52 111.57h-538.75c-61.533 0-111.57-50.082-111.57-111.57V30.85c0-61.486 50.086-111.522 111.57-111.522zM793.044-80.672c124.922 0 226.561 101.64 226.561 226.562s-101.638 226.561-226.56 226.561c-124.924 0-226.513-101.638-226.513-226.56s101.636-226.563 226.512-226.563z m0 402.422c96.98 0 175.858-78.877 175.858-175.86 0-96.984-78.877-175.861-175.858-175.861-96.935 0-175.814 78.877-175.814 175.861s78.88 175.86 175.814 175.86z"  horiz-adv-x="1048" />

    
    <glyph glyph-name="htmalicon" unicode="&#58923;" d="M547.112 505.772h-76.406v76.406h76.406v-76.406z m0-305.621h-76.406V429.367h76.406v-229.216zM508.91 773.19c-210.116 0-382.028-171.912-382.028-382.027S298.794 9.137 508.91 9.137c210.114 0 382.026 171.913 382.026 382.027S719.024 773.191 508.91 773.191z"  horiz-adv-x="1024" />

    
    <glyph glyph-name="tishi" unicode="&#58924;" d="M511.44 873.05c-270.4 0-489.6-218.88-489.6-488.89 0-174.66 93.32-336.05 244.8-423.39 151.49-87.33 338.12-87.33 489.6 0 151.49 87.33 244.8 248.72 244.8 423.39 0.01 270-219.2 488.89-489.6 488.89z m0-760.5c-30.04 0-54.4 24.32-54.4 54.32 0 19.4 10.37 37.34 27.2 47.04 16.83 9.7 37.57 9.7 54.4 0s27.2-27.64 27.2-47.04c0-29.99-24.35-54.32-54.4-54.32z m54.4 217.29c0-32.59-21.76-54.32-54.4-54.32s-54.4 21.73-54.4 54.32v271.6c0 32.59 21.76 54.32 54.4 54.32s54.4-21.73 54.4-54.32v-271.6z"  horiz-adv-x="1024" />

    
    <glyph glyph-name="duiqifangshi" unicode="&#58990;" d="M0 831.6h1023.9v-125.7H0z m0-256h768v-125.7H0z m0-256.7h1023.2v-125.7H0z m0-256.8h768v-125.7H0z"  horiz-adv-x="1024" />

    
    <glyph glyph-name="chakangengduo" unicode="&#58991;" d="M512.445 844.375c-254.458 0-460.8-206.315-460.8-460.826 0-254.5 206.342-460.774 460.8-460.774 254.546 0 460.795 206.275 460.795 460.774 0 254.516-206.249 460.826-460.795 460.826z m-47.124-670.239V593.065l209.454-209.014-209.454-209.915z"  horiz-adv-x="1024" />

    
    <glyph glyph-name="zhongyao" unicode="&#58992;" d="M123.392 893.44v-1015.296l389.632 263.68 389.632-263.68V893.44H123.392z m532.992-605.696l-143.36 74.24-143.36-74.24L398.336 448l-120.32 111.616 160.256 23.04 71.68 145.92 71.68-145.92 160.256-23.04L627.2 448l29.184-160.256z"  horiz-adv-x="1024" />

    
    </font>
</defs>
</svg>
